<?xml version="1.0" encoding="UTF-8"?>
<svg width="1273px" height="485px" viewBox="0 0 1273 485" version="1.1" xmlns="http://www.w3.org/2000/svg" xmlns:xlink="http://www.w3.org/1999/xlink">
    <!-- Generator: Sketch 53.2 (72643) - https://sketchapp.com -->
    <title>Confetti</title>
    <desc>Created with Sketch.</desc>
    <g id="Page-1" stroke="none" stroke-width="1" fill="none" fill-rule="evenodd" opacity="0.201613653">
        <g id="Homepage-wide" transform="translate(-279.000000, -107.000000)">
            <g id="Header">
                <g id="Confetti" transform="translate(279.000000, 107.000000)">
                    <path d="M796.633169,158.035994 C809.074173,145.700938 804.06868,149.538845 810.855392,161.099985 C811.490912,162.182592 813.396197,162.759886 814.558568,162.214532 C819.702572,159.801101 823.941636,155.910924 828.633169,152.75912" id="Path-2" stroke="#2E3590" stroke-width="4" opacity="0.88" transform="translate(812.633169, 156.423094) scale(1, -1) rotate(-55.000000) translate(-812.633169, -156.423094) "></path>
                    <rect id="Rectangle" fill="#2E3590" opacity="0.98" transform="translate(654.521054, 23.855222) scale(1, -1) rotate(-125.000000) translate(-654.521054, -23.855222) " x="638.021054" y="7.35522247" width="33" height="33"></rect>
                    <polygon id="Triangle" fill="#2E3590" opacity="0.9" transform="translate(1143.856830, 215.856830) rotate(-234.000000) translate(-1143.856830, -215.856830) " points="1143.85683 202.35683 1157.35683 229.35683 1130.35683 229.35683"></polygon>
                    <circle id="Oval" fill="#2E3590" opacity="0.97" transform="translate(1026.251513, 86.585681) scale(-1, -1) rotate(-318.000000) translate(-1026.251513, -86.585681) " cx="1026.25151" cy="86.5856814" r="9"></circle>
                    <circle id="Oval" fill="#2E3590" opacity="0.8" transform="translate(385.862426, 466.862426) rotate(-73.000000) translate(-385.862426, -466.862426) " cx="385.862426" cy="466.862426" r="9.5"></circle>
                    <polygon id="Triangle" fill="#2E3590" opacity="0.96" transform="translate(828.715397, 312.049566) scale(-1, 1) rotate(-39.000000) translate(-828.715397, -312.049566) " points="828.715397 300.549566 840.215397 323.549566 817.215397 323.549566"></polygon>
                    <path d="M1246.21838,329.357707 C1255.93792,320.106416 1252.02737,322.984845 1257.32949,331.655701 C1257.82599,332.467656 1259.3145,332.900626 1260.2226,332.491611 C1264.24135,330.681538 1267.55312,327.763905 1271.21838,325.400052" id="Path-2" stroke="#2E3590" stroke-width="4" opacity="0.82" transform="translate(1258.718381, 328.148032) rotate(-357.000000) translate(-1258.718381, -328.148032) "></path>
                    <polygon id="Triangle" fill="#2E3590" transform="translate(598.374130, 382.708299) scale(1, -1) rotate(-123.000000) translate(-598.374130, -382.708299) " points="598.37413 372.708299 608.37413 392.708299 588.37413 392.708299"></polygon>
                    <rect id="Rectangle" fill="#2E3590" opacity="0.76" transform="translate(1244.255071, 24.255071) scale(-1, -1) rotate(-21.000000) translate(-1244.255071, -24.255071) " x="1226.25507" y="6.25507077" width="36" height="36"></rect>
                    <path d="M36,199.013767 C45.3307527,189.762476 41.5766332,192.640905 46.6666667,201.311761 C47.1433071,202.123716 48.5722703,202.556686 49.444049,202.147671 C53.3020517,200.337598 56.4813497,197.419965 60,195.056112" id="Path-2" stroke="#2E3590" stroke-width="4" opacity="0.9" transform="translate(48.000000, 197.804092) scale(-1, -1) rotate(-173.000000) translate(-48.000000, -197.804092) "></path>
                    <rect id="Rectangle" fill="#2D3DAA" opacity="0.87" transform="translate(24.026985, 461.026985) scale(1, -1) rotate(-137.000000) translate(-24.026985, -461.026985) " x="7.02698505" y="444.026985" width="34" height="34"></rect>
                    <circle id="Oval" fill="#2E3590" opacity="0.7" transform="translate(255.624797, 228.624797) rotate(-155.000000) translate(-255.624797, -228.624797) " cx="255.624797" cy="228.624797" r="9.5"></circle>
                    <path d="M280.659859,39.3492985 C289.213049,31.1259283 285.771772,33.6845326 290.437636,41.3919593 C290.874557,42.1136975 292.18444,42.4985601 292.98357,42.1349907 C296.520073,40.5260367 299.434429,37.9325853 302.659859,35.8313826" id="Path-2" stroke="#2B3880" stroke-width="4" transform="translate(291.659859, 38.274032) scale(1, -1) rotate(-335.000000) translate(-291.659859, -38.274032) "></path>
                </g>
            </g>
        </g>
    </g>
</svg>