<svg id="Layer_1" data-name="Layer 1" xmlns="http://www.w3.org/2000/svg" viewBox="0 0 680.63 105.12"><defs><style>.cls-1{fill:#266db6;}.cls-2{fill:#2e3192;stroke:#2e3192;stroke-miterlimit:10;}</style></defs><title>CreativeSpark logo (1)</title><path class="cls-1" d="M138.05,68.31a9.34,9.34,0,1,1,6.61-2.73h0A9.33,9.33,0,0,1,138.05,68.31Zm0-14.92A5.5,5.5,0,0,0,134.11,55a5.56,5.56,0,0,0,0,7.88,5.72,5.72,0,0,0,7.88,0A5.58,5.58,0,0,0,142,55,5.52,5.52,0,0,0,138.05,53.39Z" transform="translate(-54.94 -36.96)"/><path class="cls-1" d="M107.49,101.59a12.07,12.07,0,1,1,12.07-12.07A12.08,12.08,0,0,1,107.49,101.59Zm0-20.36a8.3,8.3,0,1,0,8.3,8.29A8.3,8.3,0,0,0,107.49,81.23Z" transform="translate(-54.94 -36.96)"/><path class="cls-1" d="M107.49,55.66a9.35,9.35,0,1,1,9.35-9.35A9.35,9.35,0,0,1,107.49,55.66Zm0-14.92a5.57,5.57,0,1,0,5.58,5.57A5.58,5.58,0,0,0,107.49,40.74Z" transform="translate(-54.94 -36.96)"/><path class="cls-1" d="M109.92,66.56a2.43,2.43,0,1,1-2.43-2.43A2.42,2.42,0,0,1,109.92,66.56Z" transform="translate(-54.94 -36.96)"/><path class="cls-1" d="M93,71.57a2.43,2.43,0,1,1-3.43,0A2.42,2.42,0,0,1,93,71.57Z" transform="translate(-54.94 -36.96)"/><path class="cls-1" d="M84.53,87.1a2.43,2.43,0,1,1-2.43,2.42A2.42,2.42,0,0,1,84.53,87.1Z" transform="translate(-54.94 -36.96)"/><circle class="cls-1" cx="36.32" cy="68.8" r="2.43"/><path class="cls-1" d="M105.07,112.49a2.43,2.43,0,1,1,2.42,2.42A2.42,2.42,0,0,1,105.07,112.49Z" transform="translate(-54.94 -36.96)"/><circle class="cls-1" cx="68.8" cy="68.8" r="2.43"/><path class="cls-1" d="M130.46,92a2.43,2.43,0,1,1,2.42-2.43A2.43,2.43,0,0,1,130.46,92Z" transform="translate(-54.94 -36.96)"/><path class="cls-1" d="M76.94,68.31a9.34,9.34,0,1,1,6.61-16h0a9.34,9.34,0,0,1-6.61,16Zm0-14.92A5.5,5.5,0,0,0,73,55a5.57,5.57,0,1,0,7.88,0A5.5,5.5,0,0,0,76.94,53.39Z" transform="translate(-54.94 -36.96)"/><path class="cls-1" d="M64.28,98.87a9.35,9.35,0,1,1,9.35-9.35A9.35,9.35,0,0,1,64.28,98.87Zm0-14.92a5.57,5.57,0,1,0,5.58,5.57A5.58,5.58,0,0,0,64.28,84Z" transform="translate(-54.94 -36.96)"/><path class="cls-1" d="M76.94,129.42a9.35,9.35,0,0,1-6.61-16h0a9.35,9.35,0,1,1,6.61,16ZM73,116.13A5.6,5.6,0,0,0,73,124a5.72,5.72,0,0,0,7.88,0,5.6,5.6,0,0,0,0-7.89,5.72,5.72,0,0,0-7.88,0Z" transform="translate(-54.94 -36.96)"/><path class="cls-1" d="M138.05,129.42a9.31,9.31,0,0,1-6.61-2.73h0a9.38,9.38,0,1,1,6.62,2.73Zm-3.94-5.4a5.72,5.72,0,0,0,7.88,0,5.6,5.6,0,0,0,0-7.89,5.72,5.72,0,0,0-7.88,0A5.6,5.6,0,0,0,134.11,124Z" transform="translate(-54.94 -36.96)"/><path class="cls-1" d="M150.7,98.87a9.35,9.35,0,1,1,9.35-9.35A9.36,9.36,0,0,1,150.7,98.87Zm0-14.92a5.57,5.57,0,1,0,5.58,5.57A5.58,5.58,0,0,0,150.7,84Z" transform="translate(-54.94 -36.96)"/><path class="cls-1" d="M107.49,142.08a9.35,9.35,0,1,1,9.35-9.35A9.35,9.35,0,0,1,107.49,142.08Zm0-14.92a5.57,5.57,0,1,0,5.58,5.57A5.58,5.58,0,0,0,107.49,127.16Z" transform="translate(-54.94 -36.96)"/><rect class="cls-1" x="110.95" y="71.4" width="25.57" height="3.78" transform="translate(-70.51 72) rotate(-45)"/><path class="cls-2" d="M574.47,80h4.92v7a19.77,19.77,0,0,1,6.71-6,17.79,17.79,0,0,1,8.46-2,18.88,18.88,0,0,1,14,5.87,19.39,19.39,0,0,1,5.79,14.13,19.77,19.77,0,0,1-5.74,14.33,19.38,19.38,0,0,1-22.25,4,21.32,21.32,0,0,1-6.92-5.66v20.56h-4.92Zm19.69,3.76a14.46,14.46,0,0,0-10.75,4.46A15.23,15.23,0,0,0,579,99.35a15.74,15.74,0,0,0,2,7.83,14.13,14.13,0,0,0,5.57,5.51,15.43,15.43,0,0,0,7.67,2,14.54,14.54,0,0,0,7.45-2,15.14,15.14,0,0,0,5.56-5.75,15.51,15.51,0,0,0,0-15.45,14.84,14.84,0,0,0-13.1-7.69Z" transform="translate(-54.94 -36.96)"/><path class="cls-2" d="M660.18,80v38.25h-4.85v-6.57a21.28,21.28,0,0,1-6.94,5.66,18.88,18.88,0,0,1-8.42,1.89,18.68,18.68,0,0,1-13.87-5.88,19.74,19.74,0,0,1-5.75-14.33,19.36,19.36,0,0,1,5.8-14.13,18.9,18.9,0,0,1,14-5.87,18,18,0,0,1,8.52,2,19.38,19.38,0,0,1,6.7,6V80Zm-19.67,3.76a14.87,14.87,0,0,0-13.12,7.69,15.51,15.51,0,0,0,0,15.45,15.17,15.17,0,0,0,5.57,5.75,14.64,14.64,0,0,0,7.5,2,15.33,15.33,0,0,0,7.65-2,14.26,14.26,0,0,0,5.57-5.51,15.74,15.74,0,0,0,1.95-7.83,15.2,15.2,0,0,0-4.38-11.1A14.48,14.48,0,0,0,640.51,83.79Z" transform="translate(-54.94 -36.96)"/><path class="cls-2" d="M670.83,80h5v5.59a17.62,17.62,0,0,1,4.75-4.94,9.35,9.35,0,0,1,5.2-1.63,9,9,0,0,1,4.36,1.3l-2.57,4.14a6.91,6.91,0,0,0-2.6-.66,7.08,7.08,0,0,0-4.74,2,12.78,12.78,0,0,0-3.49,6.27q-.9,3.27-.91,13.22v12.94h-5Z" transform="translate(-54.94 -36.96)"/><path class="cls-2" d="M725.47,79.05h5.13l-17.08,18,21,21.69-5.66.49L711.32,101,705,105.29v13h-4.92v-53H705V99.7Z" transform="translate(-54.94 -36.96)"/><path class="cls-2" d="M539.5,71.28a9.94,9.94,0,0,0-3,7.34,7.56,7.56,0,0,0,1.72,5.22,10.43,10.43,0,0,0,4.26,2.86,67.53,67.53,0,0,0,7.06,2,63.75,63.75,0,0,1,8.62,2.54,13.07,13.07,0,0,1,5.64,4.35q2.32,3,2.32,8.31,0,7.66-4.61,11.85t-13,4.18a21.72,21.72,0,0,1-10.5-2.35,24.55,24.55,0,0,1-7-5.44l1.86-4.12a23.9,23.9,0,0,0,6.73,5.06,19.55,19.55,0,0,0,9,2q6.54,0,9.79-3a10.31,10.31,0,0,0,3.25-7.92,7.89,7.89,0,0,0-1.75-5.41,10.27,10.27,0,0,0-4.31-2.93,69.2,69.2,0,0,0-7.09-2A62.48,62.48,0,0,1,540,91.21a13.17,13.17,0,0,1-5.54-4.31q-2.3-3-2.29-8.22a15.69,15.69,0,0,1,1.93-7.82,13.52,13.52,0,0,1,5.62-5.38,18.72,18.72,0,0,1,8.81-1.93,17.36,17.36,0,0,1,9.5,2.67,26.12,26.12,0,0,1,6.49,5.57l-1.86,4.06q-6.76-7.53-14.24-7.54Q542.48,68.31,539.5,71.28Z" transform="translate(-54.94 -36.96)"/><path class="cls-2" d="M219.17,108.23a24,24,0,0,1-32.6.14,21.18,21.18,0,0,1-6.49-15.79A22.12,22.12,0,0,1,183,81.31a21.35,21.35,0,0,1,8.18-8,22.93,22.93,0,0,1,11.46-3A23.75,23.75,0,0,1,213,72.63a21.79,21.79,0,0,1,4.6,3l4.06-3.36a25.65,25.65,0,0,0-6-4.14,29.28,29.28,0,0,0-13.08-2.87q-12,0-20,7.76a25.59,25.59,0,0,0-8,19.1,27.3,27.3,0,0,0,6.58,18.43q7.84,9,21.41,9a30.33,30.33,0,0,0,12.92-2.69,26.22,26.22,0,0,0,6.92-4.69Z" transform="translate(-54.94 -36.96)"/><path class="cls-2" d="M247.21,79.05a19,19,0,0,1,14.65,6.39,20.55,20.55,0,0,1-.3,27.83,20.23,20.23,0,0,1-28.74,0,20.5,20.5,0,0,1-.3-27.79A18.94,18.94,0,0,1,247.21,79.05Zm0,4.81a14.19,14.19,0,0,0-10.55,4.54,15.15,15.15,0,0,0-4.41,11,15.56,15.56,0,0,0,2,7.73,14.21,14.21,0,0,0,5.44,5.54,15.46,15.46,0,0,0,15,0,14.25,14.25,0,0,0,5.43-5.54,15.56,15.56,0,0,0,2-7.73,15.13,15.13,0,0,0-4.43-11A14.19,14.19,0,0,0,247.19,83.86Z" transform="translate(-54.94 -36.96)"/><path class="cls-2" d="M324.69,80h4.93v6.86A20.4,20.4,0,0,1,336.15,81a16.13,16.13,0,0,1,7.81-2,13.49,13.49,0,0,1,7.61,2.18,13,13,0,0,1,4.91,5.87q1.57,3.69,1.58,11.49v19.69h-4.92V100a45.33,45.33,0,0,0-.55-8.82,9.7,9.7,0,0,0-3.28-5.71A9.91,9.91,0,0,0,343,83.58a12.12,12.12,0,0,0-8,3,13.82,13.82,0,0,0-4.66,7.32,50.7,50.7,0,0,0-.7,10.4v14h-4.93Z" transform="translate(-54.94 -36.96)"/><path class="cls-2" d="M366.42,80h4.93v38.25h-4.93Z" transform="translate(-54.94 -36.96)"/><path class="cls-2" d="M403.8,80h4.92v38.25H403.8Z" transform="translate(-54.94 -36.96)"/><path class="cls-2" d="M366.42,68.89h4.93V63.62h-4.93Z" transform="translate(-54.94 -36.96)"/><path class="cls-2" d="M403.8,68.89h4.92V63.62H403.8Z" transform="translate(-54.94 -36.96)"/><path class="cls-2" d="M416.77,80H422l14.28,32.5L450.53,80h5.27l-17.88,38.25h-3.54Z" transform="translate(-54.94 -36.96)"/><path class="cls-2" d="M496.24,109.71l3,3.76c-7.91,6-11.86,5.27-18.26,5.79q-9.36,0-14.64-6.13a20.69,20.69,0,0,1-5.28-13.87,20.43,20.43,0,0,1,4.47-13,18.25,18.25,0,0,1,15.16-7.24,18.89,18.89,0,0,1,15.63,7.41,20.73,20.73,0,0,1,4.22,13.08H466.13a15.64,15.64,0,0,0,4.26,10.93,13.6,13.6,0,0,0,10.17,4.26C487.84,115.05,491.72,113.47,496.24,109.71Zm-1.1-14.42a16.45,16.45,0,0,0-2.87-6.3,13.63,13.63,0,0,0-5-3.79,15.31,15.31,0,0,0-6.52-1.44,14,14,0,0,0-9.68,3.62,16.37,16.37,0,0,0-4.47,7.91Z" transform="translate(-54.94 -36.96)"/><path class="cls-2" d="M309.23,80v6.64a22.12,22.12,0,0,0-7.17-5.85,18.33,18.33,0,0,0-8-1.77,19.81,19.81,0,0,0-19.78,19.82,19.25,19.25,0,0,0,2.53,9.74,18.65,18.65,0,0,0,7.18,7,20.16,20.16,0,0,0,18.44.74,18.69,18.69,0,0,0,6.8-5.4v2c0,4.22-.5,9.67-1.48,11.57a11.61,11.61,0,0,1-4.95,4.71,17.66,17.66,0,0,1-8.5,1.87,18.09,18.09,0,0,1-8.55-1.83,12,12,0,0,1-1.9-1.26v5.49a18.09,18.09,0,0,0,1.84.74,26.24,26.24,0,0,0,8.84,1.4,22.07,22.07,0,0,0,11.5-2.85,15.36,15.36,0,0,0,6.71-8.12c.94-2.49,1.41-8.81,1.41-14.18V80Zm-3.89,29.53q-4.12,4.08-10.92,4.08a15,15,0,0,1-10.93-4.11,14,14,0,0,1-4.22-10.41,15.29,15.29,0,0,1,2-7.72,14.68,14.68,0,0,1,5.63-5.59,15.63,15.63,0,0,1,7.77-2,15,15,0,0,1,7.48,2,13.79,13.79,0,0,1,5.38,5.36,15.5,15.5,0,0,1,1.9,7.72A14.41,14.41,0,0,1,305.34,109.56Z" transform="translate(-54.94 -36.96)"/><path class="cls-2" d="M397.15,83.68V79.43h-7.8V70.2h-4.92v9.23h-6.72v4.25h6.72v30c.06,3.59,2.44,7.57,12.72,4.64V114.6c-4.76,2.07-7.8,1.09-7.8-1v-30Z" transform="translate(-54.94 -36.96)"/></svg>