<?xml version="1.0" encoding="UTF-8"?>
<svg width="19px" height="13px" viewBox="0 0 19 13" version="1.1" xmlns="http://www.w3.org/2000/svg" xmlns:xlink="http://www.w3.org/1999/xlink">
    <!-- Generator: Sketch 53.2 (72643) - https://sketchapp.com -->
    <title>email</title>
    <desc>Created with Sketch.</desc>
    <g id="Page-1" stroke="none" stroke-width="1" fill="none" fill-rule="evenodd">
        <g id="Homepage-wide" transform="translate(-642.000000, -3257.000000)" fill="#ADB5BD">
            <g id="Contacts" transform="translate(0.000000, 2759.000000)">
                <path d="M659.457685,509.664384 L643.542315,509.664384 C643.422896,509.664384 643.321984,509.562877 643.321984,509.441781 L643.321984,499.95089 L651.137997,505.119281 C651.248162,505.191849 651.37375,505.228801 651.49978,505.228801 C651.628012,505.228801 651.755804,505.191404 651.866851,505.11661 L659.678016,499.850274 L659.678016,509.441781 C659.678016,509.562877 659.577104,509.664384 659.457685,509.664384 Z M658.059025,499.335616 L651.496695,503.760514 L644.805691,499.335616 L658.059025,499.335616 Z M660.514832,498.429623 C660.434191,498.32411 660.328432,498.248425 660.210775,498.207021 C659.986919,498.079247 659.732658,498 659.457685,498 L643.542315,498 C642.692279,498 642,498.698973 642,499.558219 L642,509.441781 C642,510.301027 642.692279,511 643.542315,511 L659.457685,511 C660.307721,511 661,510.301027 661,509.441781 L661,499.558219 C661,499.113459 660.811838,498.71411 660.514832,498.429623 L660.514832,498.429623 Z" id="email"></path>
            </g>
        </g>
    </g>
</svg>