<?xml version="1.0" encoding="UTF-8"?>
<svg width="427px" height="349px" viewBox="0 0 427 349" version="1.1" xmlns="http://www.w3.org/2000/svg" xmlns:xlink="http://www.w3.org/1999/xlink">
    <!-- Generator: Sketch 53.2 (72643) - https://sketchapp.com -->
    <title>Hipster</title>
    <desc>Created with Sketch.</desc>
    <g id="Page-1" stroke="none" stroke-width="1" fill="none" fill-rule="evenodd">
        <g id="Homepage-wide" transform="translate(-1041.000000, -246.000000)">
            <g id="Header">
                <g id="Hipster" transform="translate(1018.000000, 248.000000)">
                    <path d="M40.2234391,288.158121 L27.1016145,288.158121" id="Stroke-7" stroke="#504B46" stroke-width="6.543504" stroke-linecap="round"></path>
                    <path d="M394.512702,288.158121 L381.390877,288.158121" id="Stroke-8" stroke="#504B46" stroke-width="6.543504" stroke-linecap="round"></path>
                    <path d="M53.3452636,288.158121 L368.269053,288.158121" id="Stroke-9" stroke="#504B46" stroke-width="6.543504" stroke-linecap="round"></path>
                    <path d="M236.64075,173.76556 L197.275277,173.76556 C161.039358,173.76556 131.666154,203.030445 131.666154,239.132738 L131.666154,242.401096 L164.470715,242.401096 L164.470715,288.158121 L269.445312,288.158121 L269.445312,242.401096 L302.249873,242.401096 L302.249873,239.132738 C302.249873,203.030445 272.876669,173.76556 236.64075,173.76556" id="Fill-10" fill="#4F6FC0"></path>
                    <path d="M301.524892,229.937537 C301.354308,228.715171 301.203407,227.479731 300.967215,226.276975 C300.750705,226.708398 300.606364,227.179042 300.606364,227.695443 C300.606364,228.564826 300.967215,229.349232 301.524892,229.937537" id="Fill-12" fill="#FFFFFF"></path>
                    <path d="M287.48782,208.083328 C285.677009,208.083328 284.207364,209.547553 284.207364,211.351687 C284.207364,213.155821 285.677009,214.620046 287.48782,214.620046 C289.298632,214.620046 290.768277,213.155821 290.768277,211.351687 C290.768277,209.547553 289.298632,208.083328 287.48782,208.083328" id="Fill-14" fill="#FFFFFF"></path>
                    <path d="M287.48782,240.766917 C286.280613,240.766917 285.276793,241.446736 284.705994,242.407633 L290.269647,242.407633 C289.698848,241.446736 288.695028,240.766917 287.48782,240.766917" id="Fill-16" fill="#FFFFFF"></path>
                    <path d="M251.402803,178.668098 C251.402803,180.472233 252.872447,181.936457 254.683259,181.936457 C256.494071,181.936457 257.963715,180.472233 257.963715,178.668098 C257.963715,178.151698 257.819375,177.674517 257.602865,177.243094 C256.100416,176.739767 254.571723,176.308343 253.023348,175.909604 C252.072016,176.484835 251.402803,177.478416 251.402803,178.668098" id="Fill-18" fill="#FFFFFF"></path>
                    <path d="M271.08554,198.278252 C272.896351,198.278252 274.365996,196.814027 274.365996,195.009893 C274.365996,193.205759 272.896351,191.741534 271.08554,191.741534 C269.274728,191.741534 267.805084,193.205759 267.805084,195.009893 C267.805084,196.814027 269.274728,198.278252 271.08554,198.278252" id="Fill-20" fill="#FFFFFF"></path>
                    <path d="M254.683259,214.620046 C256.494071,214.620046 257.963715,213.155821 257.963715,211.351687 C257.963715,209.547553 256.494071,208.083328 254.683259,208.083328 C252.872447,208.083328 251.402803,209.547553 251.402803,211.351687 C251.402803,213.155821 252.872447,214.620046 254.683259,214.620046" id="Fill-22" fill="#FFFFFF"></path>
                    <path d="M271.08554,230.96184 C272.896351,230.96184 274.365996,229.497616 274.365996,227.693482 C274.365996,225.889347 272.896351,224.425123 271.08554,224.425123 C269.274728,224.425123 267.805084,225.889347 267.805084,227.693482 C267.805084,229.497616 269.274728,230.96184 271.08554,230.96184" id="Fill-24" fill="#FFFFFF"></path>
                    <path d="M254.683259,247.303635 C256.494071,247.303635 257.963715,245.83941 257.963715,244.035276 C257.963715,242.231142 256.494071,240.766917 254.683259,240.766917 C252.872447,240.766917 251.402803,242.231142 251.402803,244.035276 C251.402803,245.83941 252.872447,247.303635 254.683259,247.303635" id="Fill-26" fill="#FFFFFF"></path>
                    <path d="M267.805084,260.37707 C267.805084,261.57329 268.480858,262.573407 269.445312,263.142102 L269.445312,257.612039 C268.480858,258.180733 267.805084,259.180851 267.805084,260.37707" id="Fill-28" fill="#FFFFFF"></path>
                    <path d="M254.683259,273.450506 C252.872447,273.450506 251.402803,274.914731 251.402803,276.718865 C251.402803,278.522999 252.872447,279.987224 254.683259,279.987224 C256.494071,279.987224 257.963715,278.522999 257.963715,276.718865 C257.963715,274.914731 256.494071,273.450506 254.683259,273.450506" id="Fill-30" fill="#FFFFFF"></path>
                    <path d="M221.878698,181.936457 C223.689509,181.936457 225.159154,180.472233 225.159154,178.668098 C225.159154,176.863964 223.689509,175.39974 221.878698,175.39974 C220.067886,175.39974 218.598242,176.863964 218.598242,178.668098 C218.598242,180.472233 220.067886,181.936457 221.878698,181.936457" id="Fill-32" fill="#FFFFFF"></path>
                    <path d="M238.280978,198.278252 C240.09179,198.278252 241.561434,196.814027 241.561434,195.009893 C241.561434,193.205759 240.09179,191.741534 238.280978,191.741534 C236.470167,191.741534 235.000522,193.205759 235.000522,195.009893 C235.000522,196.814027 236.470167,198.278252 238.280978,198.278252" id="Fill-34" fill="#FFFFFF"></path>
                    <path d="M221.878698,214.620046 C223.689509,214.620046 225.159154,213.155821 225.159154,211.351687 C225.159154,209.547553 223.689509,208.083328 221.878698,208.083328 C220.067886,208.083328 218.598242,209.547553 218.598242,211.351687 C218.598242,213.155821 220.067886,214.620046 221.878698,214.620046" id="Fill-36" fill="#FFFFFF"></path>
                    <path d="M238.280978,230.96184 C240.09179,230.96184 241.561434,229.497616 241.561434,227.693482 C241.561434,225.889347 240.09179,224.425123 238.280978,224.425123 C236.470167,224.425123 235.000522,225.889347 235.000522,227.693482 C235.000522,229.497616 236.470167,230.96184 238.280978,230.96184" id="Fill-38" fill="#FFFFFF"></path>
                    <path d="M221.878698,240.766917 C220.067886,240.766917 218.598242,242.231142 218.598242,244.035276 C218.598242,245.83941 220.067886,247.303635 221.878698,247.303635 C223.689509,247.303635 225.159154,245.83941 225.159154,244.035276 C225.159154,242.231142 223.689509,240.766917 221.878698,240.766917" id="Fill-40" fill="#FFFFFF"></path>
                    <path d="M238.280978,257.108711 C236.470167,257.108711 235.000522,258.572936 235.000522,260.37707 C235.000522,262.181204 236.470167,263.645429 238.280978,263.645429 C240.09179,263.645429 241.561434,262.181204 241.561434,260.37707 C241.561434,258.572936 240.09179,257.108711 238.280978,257.108711" id="Fill-42" fill="#FFFFFF"></path>
                    <path d="M221.878698,273.450506 C220.067886,273.450506 218.598242,274.914731 218.598242,276.718865 C218.598242,278.522999 220.067886,279.987224 221.878698,279.987224 C223.689509,279.987224 225.159154,278.522999 225.159154,276.718865 C225.159154,274.914731 223.689509,273.450506 221.878698,273.450506" id="Fill-44" fill="#FFFFFF"></path>
                    <path d="M189.074136,181.936457 C190.884948,181.936457 192.354592,180.472233 192.354592,178.668098 C192.354592,176.863964 190.884948,175.39974 189.074136,175.39974 C187.263324,175.39974 185.79368,176.863964 185.79368,178.668098 C185.79368,180.472233 187.263324,181.936457 189.074136,181.936457" id="Fill-46" fill="#FFFFFF"></path>
                    <path d="M205.476417,198.278252 C207.287229,198.278252 208.756873,196.814027 208.756873,195.009893 C208.756873,193.205759 207.287229,191.741534 205.476417,191.741534 C203.665605,191.741534 202.195961,193.205759 202.195961,195.009893 C202.195961,196.814027 203.665605,198.278252 205.476417,198.278252" id="Fill-48" fill="#FFFFFF"></path>
                    <path d="M189.074136,208.083328 C187.263324,208.083328 185.79368,209.547553 185.79368,211.351687 C185.79368,213.155821 187.263324,214.620046 189.074136,214.620046 C190.884948,214.620046 192.354592,213.155821 192.354592,211.351687 C192.354592,209.547553 190.884948,208.083328 189.074136,208.083328" id="Fill-50" fill="#FFFFFF"></path>
                    <path d="M205.476417,224.425123 C203.665605,224.425123 202.195961,225.889347 202.195961,227.693482 C202.195961,229.497616 203.665605,230.96184 205.476417,230.96184 C207.287229,230.96184 208.756873,229.497616 208.756873,227.693482 C208.756873,225.889347 207.287229,224.425123 205.476417,224.425123" id="Fill-52" fill="#FFFFFF"></path>
                    <path d="M189.074136,240.766917 C187.263324,240.766917 185.79368,242.231142 185.79368,244.035276 C185.79368,245.83941 187.263324,247.303635 189.074136,247.303635 C190.884948,247.303635 192.354592,245.83941 192.354592,244.035276 C192.354592,242.231142 190.884948,240.766917 189.074136,240.766917" id="Fill-54" fill="#FFFFFF"></path>
                    <path d="M205.476417,257.108711 C203.665605,257.108711 202.195961,258.572936 202.195961,260.37707 C202.195961,262.181204 203.665605,263.645429 205.476417,263.645429 C207.287229,263.645429 208.756873,262.181204 208.756873,260.37707 C208.756873,258.572936 207.287229,257.108711 205.476417,257.108711" id="Fill-56" fill="#FFFFFF"></path>
                    <path d="M189.074136,273.450506 C187.263324,273.450506 185.79368,274.914731 185.79368,276.718865 C185.79368,278.522999 187.263324,279.987224 189.074136,279.987224 C190.884948,279.987224 192.354592,278.522999 192.354592,276.718865 C192.354592,274.914731 190.884948,273.450506 189.074136,273.450506" id="Fill-58" fill="#FFFFFF"></path>
                    <path d="M172.671856,191.741534 C170.861044,191.741534 169.391399,193.205759 169.391399,195.009893 C169.391399,196.814027 170.861044,198.278252 172.671856,198.278252 C174.482667,198.278252 175.952312,196.814027 175.952312,195.009893 C175.952312,193.205759 174.482667,191.741534 172.671856,191.741534" id="Fill-60" fill="#FFFFFF"></path>
                    <path d="M156.269575,214.620046 C158.080387,214.620046 159.550031,213.155821 159.550031,211.351687 C159.550031,209.547553 158.080387,208.083328 156.269575,208.083328 C154.458763,208.083328 152.989119,209.547553 152.989119,211.351687 C152.989119,213.155821 154.458763,214.620046 156.269575,214.620046" id="Fill-62" fill="#FFFFFF"></path>
                    <path d="M172.671856,224.425123 C170.861044,224.425123 169.391399,225.889347 169.391399,227.693482 C169.391399,229.497616 170.861044,230.96184 172.671856,230.96184 C174.482667,230.96184 175.952312,229.497616 175.952312,227.693482 C175.952312,225.889347 174.482667,224.425123 172.671856,224.425123" id="Fill-64" fill="#FFFFFF"></path>
                    <path d="M156.269575,240.766917 C155.062367,240.766917 154.058547,241.446736 153.487748,242.407633 L159.051402,242.407633 C158.480602,241.446736 157.476783,240.766917 156.269575,240.766917" id="Fill-66" fill="#FFFFFF"></path>
                    <path d="M172.671856,257.108711 C170.861044,257.108711 169.391399,258.572936 169.391399,260.37707 C169.391399,262.181204 170.861044,263.645429 172.671856,263.645429 C174.482667,263.645429 175.952312,262.181204 175.952312,260.37707 C175.952312,258.572936 174.482667,257.108711 172.671856,257.108711" id="Fill-68" fill="#FFFFFF"></path>
                    <path d="M139.867294,224.425123 C138.056482,224.425123 136.586838,225.889347 136.586838,227.693482 C136.586838,229.497616 138.056482,230.96184 139.867294,230.96184 C141.678106,230.96184 143.14775,229.497616 143.14775,227.693482 C143.14775,225.889347 141.678106,224.425123 139.867294,224.425123" id="Fill-70" fill="#FFFFFF"></path>
                    <path d="M302.249873,239.140582 C302.249873,203.03829 272.876669,173.773404 236.64075,173.773404 L197.275277,173.773404 C161.039358,173.773404 131.666154,203.03829 131.666154,239.140582 L131.666154,245.677299 C131.666154,209.575007 161.039358,199.920275 197.275277,199.920275 L236.64075,199.920275 C272.876669,199.920275 302.249873,209.575007 302.249873,245.677299 L302.249873,239.140582 Z" id="Fill-72" fill-opacity="0.2" fill="#FFFFFF"></path>
                    <polyline id="Stroke-74" stroke="#504B46" stroke-width="6.543504" stroke-linecap="round" stroke-linejoin="round" points="164.470715 235.872223 164.470715 288.165965 269.445312 288.165965 269.445312 235.872223"></polyline>
                    <path d="M269.445312,242.408941 L269.445312,242.408941 L302.249873,242.408941 L302.249873,239.140582 C302.249873,203.03829 272.876669,173.773404 236.64075,173.773404 L197.275277,173.773404 C161.039358,173.773404 131.666154,203.03829 131.666154,239.140582 L131.666154,242.408941 L164.470715,242.408941" id="Stroke-76" stroke="#504B46" stroke-width="6.543504" stroke-linecap="round" stroke-linejoin="round"></path>
                    <path d="M164.470715,248.945658 L164.470715,242.408941" id="Fill-78" fill="#EDF2F4"></path>
                    <path d="M164.470715,248.945658 L164.470715,242.408941" id="Stroke-80" stroke="#504B46" stroke-width="6.543504" stroke-linecap="round" stroke-linejoin="round"></path>
                    <path d="M217.36807,248.937814 L217.36807,284.889762" id="Fill-82" fill="#FFD183"></path>
                    <path d="M217.36807,248.937814 L217.36807,284.889762" id="Stroke-84" stroke="#504A45" stroke-width="6.543504" stroke-linecap="round" stroke-linejoin="round"></path>
                    <path d="M358.017627,301.231556 L348.176259,301.231556 L341.615347,301.231556 L334.641097,301.231556 C317.608969,301.231556 301.836536,295.296217 301.836536,252.21271 L301.836536,242.407633 L275.592886,242.407633 L275.592886,252.21271 C275.592886,314.337675 307.708552,327.378427 334.641097,327.378427 L341.615347,327.378427 L348.176259,327.378427 L358.017627,327.378427 C365.267435,327.378427 371.139452,321.521528 371.139452,314.304992 C371.139452,307.081919 365.267435,301.231556 358.017627,301.231556" id="Fill-86" fill="#FFD4C3"></path>
                    <path d="M358.017627,301.231556 L348.176259,301.231556 L341.615347,301.231556 L334.641097,301.231556 C317.608969,301.231556 301.836536,295.296217 301.836536,252.21271 L301.836536,242.407633 L275.592886,242.407633 L275.592886,252.21271 C275.592886,314.337675 307.708552,327.378427 334.641097,327.378427 L341.615347,327.378427 L348.176259,327.378427 L358.017627,327.378427 C365.267435,327.378427 371.139452,321.521528 371.139452,314.304992 C371.139452,307.081919 365.267435,301.231556 358.017627,301.231556 L358.017627,301.231556 Z" id="Stroke-88" stroke="#504A45" stroke-width="6.543504"></path>
                    <path d="M236.64075,179.620498 C236.64075,186.176826 233.353733,192.301731 227.875371,195.936146 C221.261972,200.32882 212.654055,200.32882 206.040655,195.936146 C200.562294,192.301731 197.275277,186.176826 197.275277,179.620498 L197.275277,150.89816 L236.64075,150.89816 L236.64075,179.620498 Z" id="Fill-90" fill="#FFDFD1"></path>
                    <path d="M197.275277,173.072668 C197.773906,173.294916 198.239731,173.543312 198.764604,173.74595 C209.780375,178.138624 224.135651,178.138624 235.151423,173.74595 C235.676296,173.543312 236.142121,173.294916 236.64075,173.072668 L236.64075,150.893585 L197.275277,150.893585 L197.275277,173.072668 Z" id="Fill-92" fill="#FFCAB3"></path>
                    <path d="M236.64075,179.620498 C236.64075,186.176826 233.353733,192.301731 227.875371,195.936146 C221.261972,200.32882 212.654055,200.32882 206.040655,195.936146 C200.562294,192.301731 197.275277,186.176826 197.275277,179.620498 L197.275277,150.89816 L236.64075,150.89816 L236.64075,179.620498 L236.64075,179.620498 Z" id="Stroke-94" stroke="#504B46" stroke-width="6.543504" stroke-linecap="round" stroke-linejoin="round"></path>
                    <path d="M282.567136,101.869509 C282.567136,95.7838247 278.374713,90.7178684 272.725768,89.2601803 L272.725768,85.5277145 C272.725768,56.6484955 245.944124,33.2339725 216.958013,33.2339725 C187.971903,33.2339725 161.190259,56.6484955 161.190259,85.5277145 L161.190259,89.2601803 C155.541314,90.7178684 151.348891,95.7838247 151.348891,101.869509 C151.348891,108.007487 155.606923,113.1192 161.334599,114.524594 C162.830487,142.070323 188.936357,163.968328 216.958013,163.968328 C244.97967,163.968328 271.08554,142.070323 272.581428,114.524594 C278.309104,113.1192 282.567136,108.007487 282.567136,101.869509" id="Fill-96" fill="#FFD4C3"></path>
                    <path d="M282.567136,101.869509 C282.567136,95.7838247 278.374713,90.7178684 272.725768,89.2601803 L272.725768,85.5277145 C272.725768,56.6484955 245.944124,33.2339725 216.958013,33.2339725 C187.971903,33.2339725 161.190259,56.6484955 161.190259,85.5277145 L161.190259,89.2601803 C155.541314,90.7178684 151.348891,95.7838247 151.348891,101.869509 C151.348891,108.007487 155.606923,113.1192 161.334599,114.524594 C162.830487,142.070323 188.936357,163.968328 216.958013,163.968328 C244.97967,163.968328 271.08554,142.070323 272.581428,114.524594 C278.309104,113.1192 282.567136,108.007487 282.567136,101.869509 L282.567136,101.869509 Z" id="Stroke-98" stroke="#504A45" stroke-width="6.543504"></path>
                    <path d="M207.116645,105.137868 C205.089323,101.300814 201.533309,98.60115 197.275277,98.60115 C193.017245,98.60115 189.46123,101.300814 187.433908,105.137868" id="Stroke-100" stroke="#504B46" stroke-width="6.543504" stroke-linecap="round" stroke-linejoin="round"></path>
                    <path d="M246.482119,105.137868 C244.454797,101.300814 240.898782,98.60115 236.64075,98.60115 C232.382718,98.60115 228.826704,101.300814 226.799382,105.137868" id="Stroke-102" stroke="#504B46" stroke-width="6.543504" stroke-linecap="round" stroke-linejoin="round"></path>
                    <path d="M220.648527,78.9831527 C239.22903,78.9831527 256.116818,74.4924276 268.910597,67.1778404 C260.558556,47.3650489 239.452101,33.2326651 216.961294,33.2326651 C195.8614,33.2326651 175.988397,45.6655023 166.704706,63.5499621 C179.924944,72.9955192 199.161539,78.9831527 220.648527,78.9831527" id="Fill-104" fill="#F9BEAA"></path>
                    <path d="M261.790695,60.4620166 C261.987523,67.0248812 277.746834,157.061632 217.366758,160.68951 C158.338231,164.245484 168.704472,59.3703847 178.001285,59.3703847 C194.403565,62.6387436 227.595221,70.6396861 262.886368,56.1020259 C282.975881,-25.606946 139.987359,-8.01010185 144.789947,59.3703847 C158.318548,52.833667 161.192227,62.6387436 161.192227,72.4438202 C161.192227,103.689331 162.832455,123.920473 161.192227,134.542639 C150.222382,205.551004 198.779694,209.172345 217.917875,247.30102 C239.24084,206.995618 289.274357,189.797514 272.727736,132.09137 C270.267394,123.515196 278.875311,60.4620166 261.790695,60.4620166" id="Fill-106" fill="#FFD183"></path>
                    <path d="M273.479617,163.310734 C273.256546,163.304197 273.040035,163.264977 272.816964,163.251903 C273.499299,163.500299 274.188195,163.768304 274.850847,163.984016 C274.890213,163.768304 274.909895,163.539519 274.949261,163.323807 C274.450632,163.310734 273.991368,163.330344 273.479617,163.310734" id="Fill-108" fill="#FFC258"></path>
                    <path d="M159.960088,163.31727 C159.979771,163.480688 160.006014,163.631033 160.025697,163.787914 C160.511205,163.624496 161.016395,163.434931 161.508463,163.251903 C161.291953,163.264977 161.075443,163.304197 160.852372,163.310734 C160.544009,163.323807 160.26189,163.310734 159.960088,163.31727" id="Fill-110" fill="#FFC258"></path>
                    <path d="M213.01753,160.060024 C205.997353,159.857386 200.040045,158.033641 195.027508,154.980994 C185.232066,159.707041 173.704543,162.642027 161.514368,163.249942 C161.015739,163.43297 160.510549,163.622535 160.025041,163.79249 C160.786107,170.20501 162.236069,175.852734 164.217464,180.89908 C184.11015,179.330268 202.067367,171.682308 213.01753,160.060024" id="Fill-112" fill="#FFC258"></path>
                    <path d="M272.819589,163.251903 C259.960201,162.604768 247.875,159.349483 237.758074,154.152792 C233.034217,156.891677 227.477124,158.800398 220.962138,159.630562 C231.676108,171.272456 249.324962,179.018466 269.01426,180.80299 C271.691112,175.6063 273.731556,170.063163 274.846911,163.984016 C274.190819,163.768304 273.495363,163.500299 272.819589,163.251903" id="Fill-114" fill="#FFC258"></path>
                    <path d="M157.674922,60.0397446 C174.024716,24.0093564 237.836148,11.5830559 263.292488,36.40951 C258.378365,-23.251113 139.107541,-3.33373397 143.496791,58.3205879 C151.205863,54.6011955 155.444212,56.1830812 157.674922,60.0397446" id="Fill-116" fill="#FFEDD8"></path>
                    <path d="M261.790695,60.4620166 C261.987523,67.0248812 277.746834,157.061632 217.366758,160.68951 C158.338231,164.245484 168.704472,59.3703847 178.001285,59.3703847 C194.403565,62.6387436 227.595221,70.6396861 262.886368,56.1020259 C282.975881,-25.606946 139.987359,-8.01010185 144.789947,59.3703847 C158.318548,52.833667 161.192227,62.6387436 161.192227,72.4438202 C161.192227,103.689331 162.832455,123.920473 161.192227,134.542639 C150.222382,205.551004 198.779694,209.172345 217.917875,247.30102 C239.24084,206.995618 290.770245,188.882374 271.087508,130.869004 C268.220389,122.417027 285.849561,60.4620166 261.790695,60.4620166 L261.790695,60.4620166 Z" id="Stroke-118" stroke="#504A45" stroke-width="6.543504" stroke-linecap="round" stroke-linejoin="round"></path>
                    <path d="M284.070897,135.089762 C293.092152,131.416127 298.557392,146.391747 287.075795,148.43774 C270.037106,151.470777 231.577038,119.114024 217.366102,128.010497 C203.161727,119.114024 164.701659,151.470777 147.656409,148.43774 C136.174813,146.391747 141.646614,131.416127 150.667868,135.089762 C127.153558,116.159428 117.646797,165.831946 161.053792,163.962444 C185.06017,162.929643 206.70462,152.928465 217.366102,137.815573 C228.027585,152.928465 249.678595,162.929643 273.684973,163.962444 C317.091969,165.831946 307.578646,116.159428 284.070897,135.089762" id="Fill-120" fill="#FFD183"></path>
                    <path d="M284.070897,135.089762 C293.092152,131.416127 298.557392,146.391747 287.075795,148.43774 C270.037106,151.470777 231.577038,119.114024 217.366102,128.010497 C203.161727,119.114024 164.701659,151.470777 147.656409,148.43774 C136.174813,146.391747 141.646614,131.416127 150.667868,135.089762 C127.153558,116.159428 117.646797,165.831946 161.053792,163.962444 C185.06017,162.929643 206.70462,152.928465 217.366102,137.815573 C228.027585,152.928465 249.678595,162.929643 273.684973,163.962444 C317.091969,165.831946 307.578646,116.159428 284.070897,135.089762 L284.070897,135.089762 Z" id="Stroke-122" stroke="#504A45" stroke-width="6.543504" stroke-linecap="round" stroke-linejoin="round"></path>
                    <path d="M233.770351,314.304992 C233.770351,307.081919 227.898335,301.231556 220.648527,301.231556 L210.807158,301.231556 L204.246246,301.231556 L197.278557,301.231556 C180.239868,301.231556 164.473996,295.296217 164.473996,252.21271 L164.473996,242.407633 L138.230347,242.407633 L138.230347,252.21271 C138.230347,314.337675 170.339451,327.378427 197.278557,327.378427 L204.246246,327.378427 L210.807158,327.378427 L220.648527,327.378427 C227.898335,327.378427 233.770351,321.521528 233.770351,314.304992" id="Fill-124" fill="#FFD4C3"></path>
                    <path d="M233.770351,314.304992 C233.770351,307.081919 227.898335,301.231556 220.648527,301.231556 L210.807158,301.231556 L204.246246,301.231556 L197.278557,301.231556 C180.239868,301.231556 164.473996,295.296217 164.473996,252.21271 L164.473996,242.407633 L138.230347,242.407633 L138.230347,252.21271 C138.230347,314.337675 170.339451,327.378427 197.278557,327.378427 L204.246246,327.378427 L210.807158,327.378427 L220.648527,327.378427 C227.898335,327.378427 233.770351,321.521528 233.770351,314.304992 L233.770351,314.304992 Z" id="Stroke-126" stroke="#504A45" stroke-width="6.543504"></path>
                    <path d="M430.597719,337.183504 C430.597719,342.595906 377.723327,346.988581 312.501298,346.988581 C247.27927,346.988581 194.404877,342.595906 194.404877,337.183504 C194.404877,331.771102 247.27927,327.378427 312.501298,327.378427 C377.723327,327.378427 430.597719,331.771102 430.597719,337.183504" id="Fill-128" fill="#E3ECF1"></path>
                    <path d="M288.296781,314.304992 L275.174956,314.304992 L306.509873,217.515812 C307.389036,214.816148 309.908426,212.985867 312.755862,212.985867 L321.101342,212.985867" id="Fill-130" fill="#E3ECF1"></path>
                    <path d="M288.296781,314.304992 L275.174956,314.304992 L306.509873,217.515812 C307.389036,214.816148 309.908426,212.985867 312.755862,212.985867 L321.101342,212.985867" id="Stroke-132" stroke="#504A45" stroke-width="6.543504" stroke-linejoin="round"></path>
                    <path d="M416.23457,314.304992 L288.296781,314.304992 L321.101342,212.985867 L440.030999,212.985867 C442.12393,212.985867 444.098765,213.985984 445.332216,215.672458 C446.565668,217.365468 446.919957,219.542195 446.270427,221.529357 L416.23457,314.304992 Z" id="Fill-134" fill="#ADBAC7"></path>
                    <path d="M416.23457,314.304992 L288.296781,314.304992 L321.101342,212.985867 L440.030999,212.985867 C442.12393,212.985867 444.098765,213.985984 445.332216,215.672458 C446.565668,217.365468 446.919957,219.542195 446.270427,221.529357 L416.23457,314.304992 L416.23457,314.304992 Z" id="Stroke-136" stroke="#504A45" stroke-width="6.543504" stroke-linejoin="round"></path>
                    <polygon id="Fill-138" fill="#CAD7DE" points="407.634526 212.985867 321.102654 212.985867 288.298093 314.304992 305.940386 314.304992"></polygon>
                    <path d="M416.23457,314.304992 L281.735869,314.304992 L281.735869,330.646786 L403.112746,330.646786 C410.362554,330.646786 416.23457,324.796424 416.23457,317.573351 L416.23457,314.304992 Z" id="Fill-140" fill="#CAD7DE"></path>
                    <path d="M416.23457,314.304992 L281.735869,314.304992 L281.735869,330.646786 L403.112746,330.646786 C410.362554,330.646786 416.23457,324.796424 416.23457,317.573351 L416.23457,314.304992 L416.23457,314.304992 Z" id="Stroke-142" stroke="#504A45" stroke-width="6.543504" stroke-linejoin="round"></path>
                    <path d="M281.735869,314.304992 L216.126746,314.304992 L216.126746,317.573351 C216.126746,324.796424 221.998762,330.646786 229.24857,330.646786 L281.735869,330.646786 L281.735869,314.304992 Z" id="Fill-144" fill="#E3ECF1"></path>
                    <path d="M281.735869,314.304992 L216.126746,314.304992 L216.126746,317.573351 C216.126746,324.796424 221.998762,330.646786 229.24857,330.646786 L281.735869,330.646786 L281.735869,314.304992 L281.735869,314.304992 Z" id="Stroke-146" stroke="#504A45" stroke-width="6.543504" stroke-linejoin="round"></path>
                    <path d="M416.23457,314.304992 L288.296781,314.304992 L321.101342,212.985867 L440.030999,212.985867 C442.12393,212.985867 444.098765,213.985984 445.332216,215.672458 C446.565668,217.365468 446.919957,219.542195 446.270427,221.529357 L416.23457,314.304992 L416.23457,314.304992 Z" id="Stroke-154" stroke="#504A45" stroke-width="6.543504" stroke-linejoin="round"></path>
                    <path d="M78.8613076,189.314451 C75.016613,193.144967 75.016613,199.354849 78.8613076,203.178829 L84.6283494,208.924604 C88.4664831,212.75512 88.4664831,218.965002 84.6283494,222.788982 L78.8613076,228.534757 C75.016613,232.365274 75.016613,238.575156 78.8613076,242.399135" id="Stroke-156" stroke="#FFFFFF" stroke-width="6.543504" stroke-linecap="round" stroke-linejoin="round"></path>
                    <path d="M103.746192,189.314451 C99.9014971,193.144967 99.9014971,199.354849 103.746192,203.178829 L109.513234,208.924604 C113.351367,212.75512 113.351367,218.965002 109.513234,222.788982 L103.746192,228.534757 C99.9014971,232.365274 99.9014971,238.575156 103.746192,242.399135" id="Stroke-158" stroke="#FFFFFF" stroke-width="6.543504" stroke-linecap="round" stroke-linejoin="round"></path>
                    <path d="M135.356667,340.451863 C135.356667,344.060131 114.794768,346.988581 89.4302811,346.988581 C64.0657943,346.988581 43.5038952,344.060131 43.5038952,340.451863 C43.5038952,336.843595 64.0657943,333.915145 89.4302811,333.915145 C114.794768,333.915145 135.356667,336.843595 135.356667,340.451863" id="Fill-160" fill="#E3ECF1"></path>
                    <path d="M59.9061759,324.110068 C45.4328034,324.110068 33.6625268,312.383197 33.6625268,297.963197 C33.6625268,283.543198 45.4328034,271.816326 59.9061759,271.816326 L59.9061759,284.889762 C52.6694897,284.889762 46.7843514,290.753198 46.7843514,297.963197 C46.7843514,305.173197 52.6694897,311.036633 59.9061759,311.036633 L59.9061759,324.110068 Z" id="Fill-162" fill="#FFFFFF"></path>
                    <path d="M59.9061759,324.110068 C45.4328034,324.110068 33.6625268,312.383197 33.6625268,297.963197 C33.6625268,283.543198 45.4328034,271.816326 59.9061759,271.816326 L59.9061759,284.889762 C52.6694897,284.889762 46.7843514,290.753198 46.7843514,297.963197 C46.7843514,305.173197 52.6694897,311.036633 59.9061759,311.036633 L59.9061759,324.110068 L59.9061759,324.110068 Z" id="Stroke-164" stroke="#504A45" stroke-width="6.543504" stroke-linejoin="round"></path>
                    <path d="M125.105242,330.646786 C125.105242,334.255054 122.165953,337.183504 118.544329,337.183504 L66.8771452,337.183504 C63.2555216,337.183504 60.3162329,334.255054 60.3162329,330.646786 L60.3162329,262.01125 C60.3162329,258.402982 63.2555216,255.474532 66.8771452,255.474532 L118.544329,255.474532 C122.165953,255.474532 125.105242,258.402982 125.105242,262.01125 L125.105242,330.646786 Z" id="Fill-166" fill="#FFFFFF"></path>
                    <path d="M125.105242,330.646786 C125.105242,334.255054 122.165953,337.183504 118.544329,337.183504 L66.8771452,337.183504 C63.2555216,337.183504 60.3162329,334.255054 60.3162329,330.646786 L60.3162329,262.01125 C60.3162329,258.402982 63.2555216,255.474532 66.8771452,255.474532 L118.544329,255.474532 C122.165953,255.474532 125.105242,258.402982 125.105242,262.01125 L125.105242,330.646786 L125.105242,330.646786 Z" id="Stroke-168" stroke="#504A45" stroke-width="6.543504" stroke-linejoin="round"></path>
                    <path d="M102.142049,294.694839 C102.142049,294.694839 113.282478,289.635419 113.282478,281.510279 C113.282478,273.372065 103.401744,272.74454 102.142049,280.882754 C100.882354,272.74454 91.0016196,273.372065 91.0016196,282.131267 C91.0016196,290.890469 102.142049,294.694839 102.142049,294.694839" id="Fill-170" fill="#E05C4A"></path>
                    <path d="M80.8190838,278.353044 L80.8190838,291.42648" id="Stroke-172" stroke="#504A45" stroke-width="6.543504" stroke-linecap="round" stroke-linejoin="round"></path>
                    <path d="M77.5386276,278.353044 L84.0995399,278.353044" id="Stroke-180" stroke="#504A45" stroke-width="6.543504" stroke-linecap="round" stroke-linejoin="round"></path>
                    <path d="M77.5386276,291.42648 L84.0995399,291.42648" id="Stroke-182" stroke="#504A45" stroke-width="6.543504" stroke-linecap="round" stroke-linejoin="round"></path>
                    <text id="CS" font-family="Montserrat-Black, Montserrat" font-size="24" font-weight="700" letter-spacing="5" fill="#504A45">
                        <tspan x="72" y="324">CS</tspan>
                    </text>
                </g>
            </g>
        </g>
    </g>
</svg>