<?xml version="1.0" encoding="UTF-8"?>
<svg width="30px" height="30px" viewBox="0 0 30 30" version="1.1" xmlns="http://www.w3.org/2000/svg" xmlns:xlink="http://www.w3.org/1999/xlink">
    <!-- Generator: Sketch 53.2 (72643) - https://sketchapp.com -->
    <title>Icon3</title>
    <desc>Created with Sketch.</desc>
    <g id="Page-1" stroke="none" stroke-width="1" fill="none" fill-rule="evenodd">
        <g id="Homepage-wide" transform="translate(-465.000000, -1847.000000)">
            <g id="Services" transform="translate(0.000000, 1316.000000)">
                <g id="Icon3" transform="translate(465.000000, 531.000000)">
                    <circle id="Oval" fill="#A9ECD0" fill-rule="nonzero" cx="15" cy="15" r="15"></circle>
                    <path d="M16.0887231,11.8372093 L12.4377841,11.8372093 C12.0999154,11.8372093 11.8264414,11.5662285 11.8264414,11.2305359 C11.8264414,10.8948433 12.0999154,10.6238625 12.4377841,10.6238625 L16.0887231,10.6238625 C16.4265918,10.6238625 16.7000658,10.8948433 16.7000658,11.2305359 C16.7000658,11.5662285 16.4265918,11.8372093 16.0887231,11.8372093 Z M18.5031194,14.3811931 L12.4377841,14.3811931 C12.0999154,14.3811931 11.8264414,14.1061678 11.8264414,13.7745197 C11.8264414,13.4388271 12.0999154,13.1678463 12.4377841,13.1678463 L18.5031194,13.1678463 C18.8405806,13.1678463 19.1144622,13.4388271 19.1144622,13.7745197 C19.1144622,14.1061678 18.8405806,14.3811931 18.5031194,14.3811931 Z M18.5324639,16.9211325 L12.4671286,16.9211325 C12.1296674,16.9211325 11.8557858,16.6501517 11.8557858,16.314459 C11.8557858,15.9787664 12.1296674,15.7077856 12.4671286,15.7077856 L18.5324639,15.7077856 C18.8703326,15.7077856 19.1438066,15.9787664 19.1438066,16.314459 C19.1438066,16.6501517 18.8703326,16.9211325 18.5324639,16.9211325 Z M18.5031194,19.4651163 L12.4377841,19.4651163 C12.0999154,19.4651163 11.8264414,19.190091 11.8264414,18.8584429 C11.8264414,18.5227503 12.0999154,18.2517695 12.4377841,18.2517695 L18.5031194,18.2517695 C18.8405806,18.2517695 19.1144622,18.5227503 19.1144622,18.8584429 C19.1144622,19.190091 18.8405806,19.4651163 18.5031194,19.4651163 Z M10.4264664,8.21334681 C10.3160172,8.21334681 10.2226855,8.30637007 10.2226855,8.41557128 L10.2226855,21.5844287 C10.2226855,21.6936299 10.3160172,21.7866532 10.4264664,21.7866532 L20.5735336,21.7866532 C20.6839828,21.7866532 20.7773145,21.6936299 20.7773145,21.5844287 L20.7773145,8.41557128 C20.7773145,8.30637007 20.6839828,8.21334681 20.5735336,8.21334681 L10.4264664,8.21334681 Z M20.5735336,23 L10.4264664,23 C9.63987209,23 9,22.3650152 9,21.5844287 L9,8.41557128 C9,7.63498483 9.63987209,7 10.4264664,7 L20.5735336,7 C21.3601279,7 22,7.63498483 22,8.41557128 L22,21.5844287 C22,22.3650152 21.3601279,23 20.5735336,23 L20.5735336,23 Z" id="5H" fill="#1AAE6F"></path>
                </g>
            </g>
        </g>
    </g>
</svg>