<?xml version="1.0" encoding="UTF-8"?>
<svg width="30px" height="30px" viewBox="0 0 30 30" version="1.1" xmlns="http://www.w3.org/2000/svg" xmlns:xlink="http://www.w3.org/1999/xlink">
    <!-- Generator: Sketch 53.2 (72643) - https://sketchapp.com -->
    <title>icon9</title>
    <desc>Created with Sketch.</desc>
    <g id="Page-1" stroke="none" stroke-width="1" fill="none" fill-rule="evenodd">
        <g id="Homepage-wide" transform="translate(-937.000000, -1930.000000)" fill-rule="nonzero">
            <g id="Services" transform="translate(0.000000, 1316.000000)">
                <g id="icon9" transform="translate(937.000000, 614.000000)">
                    <circle id="Oval" fill="#F7C0B4" cx="15" cy="15" r="15"></circle>
                    <path d="M22.8001449,7.55968394 C22.7620512,7.38093671 22.6213977,7.24028316 22.4426505,7.20218949 C21.4990995,7 20.7606683,7 20.0251675,7 C17.001116,7 15.1872712,8.6175159 13.8334807,10.7507615 L10.7801264,10.7507615 C10.246815,10.7507615 9.76038814,11.0525806 9.52303527,11.5272863 L8.07547575,14.4224054 C7.84105316,14.8912506 8.18096592,15.4392134 8.70548647,15.4392134 L11.4921851,15.4392134 C11.3192984,15.8142895 11.1434814,16.1864354 10.9647342,16.5439298 C10.8738955,16.7256074 10.9090588,16.9424482 11.0526427,17.0860321 L12.9163023,18.9496917 C13.0598861,19.0932755 13.276727,19.1284389 13.4584046,19.0376002 C13.815899,18.858853 14.1880449,18.6859663 14.563121,18.5130796 L14.563121,21.2997782 C14.563121,21.8213685 15.1140141,22.1612812 15.579929,21.9297889 L18.4721178,20.4822294 C18.9497538,20.2448765 19.2486426,19.7555194 19.2486426,19.2251383 L19.2486426,16.1659234 C21.3760277,14.8092026 22.9994041,12.9894973 22.9994041,9.98009722 C23.0023344,9.24166605 23.0023344,8.50323488 22.8001449,7.55968394 Z M19.7204181,11.6884519 C18.9438932,11.6884519 18.3138825,11.0584412 18.3138825,10.2819163 C18.3138825,9.50539147 18.9438932,8.87538075 19.7204181,8.87538075 C20.4969429,8.87538075 21.1269536,9.50539147 21.1269536,10.2819163 C21.1269536,11.0584412 20.4969429,11.6884519 19.7204181,11.6884519 Z" id="rocket" fill="#FA755A"></path>
                </g>
            </g>
        </g>
    </g>
</svg>