<?xml version="1.0" encoding="UTF-8"?>
<svg width="30px" height="30px" viewBox="0 0 30 30" version="1.1" xmlns="http://www.w3.org/2000/svg" xmlns:xlink="http://www.w3.org/1999/xlink">
    <!-- Generator: Sketch 53.2 (72643) - https://sketchapp.com -->
    <title>icon4</title>
    <desc>Created with Sketch.</desc>
    <defs>
        <path d="M11.8,14.8461538 C13.3475,14.8461538 14.6,13.5385989 14.6,11.9230769 C14.6,10.3075549 13.3475,9 11.8,9 C10.2525,9 9,10.3075549 9,11.9230769 C9,13.5385989 10.2525,14.8461538 11.8,14.8461538 Z M13.72,15.6813187 L13.5125,15.6813187 C12.9925,15.9423077 12.415,16.0989011 11.8,16.0989011 C11.185,16.0989011 10.61,15.9423077 10.0875,15.6813187 L9.88,15.6813187 C8.29,15.6813187 7,17.028022 7,18.6879121 L7,19.4395604 C7,20.1311813 7.5375,20.6923077 8.2,20.6923077 L15.4,20.6923077 C16.0625,20.6923077 16.6,20.1311813 16.6,19.4395604 L16.6,18.6879121 C16.6,17.028022 15.31,15.6813187 13.72,15.6813187 Z M19,14.8461538 C20.325,14.8461538 21.4,13.7239011 21.4,12.3406593 C21.4,10.9574176 20.325,9.83516484 19,9.83516484 C17.675,9.83516484 16.6,10.9574176 16.6,12.3406593 C16.6,13.7239011 17.675,14.8461538 19,14.8461538 Z M20.2,15.6813187 L20.105,15.6813187 C19.7575,15.8065934 19.39,15.8901099 19,15.8901099 C18.61,15.8901099 18.2425,15.8065934 17.895,15.6813187 L17.8,15.6813187 C17.29,15.6813187 16.82,15.8353022 16.4075,16.0832418 C17.0175,16.7696429 17.4,17.6804945 17.4,18.6879121 L17.4,19.6901099 C17.4,19.7475275 17.3875,19.8023352 17.385,19.8571429 L21.8,19.8571429 C22.4625,19.8571429 23,19.2960165 23,18.6043956 C23,16.9888736 21.7475,15.6813187 20.2,15.6813187 L20.2,15.6813187 Z" id="path-1"></path>
    </defs>
    <g id="Page-1" stroke="none" stroke-width="1" fill="none" fill-rule="evenodd">
        <g id="Homepage-wide" transform="translate(-465.000000, -1917.000000)">
            <g id="Services" transform="translate(0.000000, 1316.000000)">
                <g id="icon4" transform="translate(465.000000, 601.000000)">
                    <circle id="Oval" fill="#A9ECD0" fill-rule="nonzero" cx="15" cy="15" r="15"></circle>
                    <mask id="mask-2" fill="white">
                        <use xlink:href="#path-1"></use>
                    </mask>
                    <use id="user-friends" fill="#1AAE6F" fill-rule="nonzero" xlink:href="#path-1"></use>
                </g>
            </g>
        </g>
    </g>
</svg>