<?xml version="1.0" encoding="UTF-8"?>
<svg width="30px" height="30px" viewBox="0 0 30 30" version="1.1" xmlns="http://www.w3.org/2000/svg" xmlns:xlink="http://www.w3.org/1999/xlink">
    <!-- Generator: Sketch 53.2 (72643) - https://sketchapp.com -->
    <title>icon7</title>
    <desc>Created with Sketch.</desc>
    <defs>
        <path d="M11.0988595,7.37241196 L12.2086511,8.01301092 C12.3353959,8.08616197 12.3942241,8.23743801 12.3508126,8.37720363 C12.0625313,9.30538072 11.5703438,10.1439224 10.9266199,10.8403807 C10.8273988,10.9477896 10.6670202,10.9721621 10.5403699,10.8990786 L9.43141154,10.2585839 C8.96482469,10.6583642 8.42840297,10.9685157 7.8491459,11.1734276 L7.8491459,12.4542089 C7.84914804,12.6005245 7.74770935,12.7272877 7.60495319,12.7593651 C6.69464069,12.9637922 5.71695839,12.9743651 4.76070839,12.7595474 C4.61773964,12.727438 4.51583859,12.6007974 4.51583859,12.4542609 L4.51583859,11.1734276 C3.936576,10.9685277 3.40015217,10.658375 2.93357296,10.2585839 L1.82461462,10.8990786 C1.69796434,10.9721621 1.53758572,10.9477896 1.43836462,10.8403807 C0.794666701,10.1439224 0.302453157,9.30538072 0.0141719058,8.37720363 C-0.0292395527,8.23746405 0.0295885726,8.08618801 0.156333365,8.01301092 L1.26615108,7.37241196 C1.15468021,6.76814346 1.15468021,6.1485815 1.26615108,5.544313 L0.156359407,4.90371403 C0.0296146142,4.83056299 -0.0292135111,4.67928695 0.0141979475,4.53952132 C0.302479199,3.61134424 0.794666701,2.77280256 1.43839066,2.07634423 C1.53761176,1.96893537 1.69799038,1.94456283 1.82464066,2.01764631 L2.933599,2.65814111 C3.40018585,2.25836074 3.93660757,1.94820923 4.51586464,1.74329735 L4.51586464,0.462490053 C4.5158625,0.316174379 4.61730119,0.189411168 4.76005735,0.157333802 C5.67036985,-0.0470932825 6.64805215,-0.0576661992 7.60430215,0.15715151 C7.7472709,0.189260885 7.84917194,0.315901511 7.84917194,0.46243797 L7.84917194,1.74327131 C8.42843454,1.9481712 8.96485837,2.25832392 9.43143758,2.65811506 L10.5403959,2.01762027 C10.6670462,1.94453679 10.8274248,1.96890933 10.9266459,2.07631819 C11.5703438,2.77277652 12.0625574,3.61131819 12.3508386,4.53949528 C12.3942501,4.67923487 12.335422,4.83051091 12.2086772,4.90368799 L11.0988595,5.54428695 C11.2103306,6.14856419 11.2103306,6.76813473 11.0988595,7.37241196 Z M8.26583861,6.45834946 C8.26583861,5.30959945 7.33125528,4.37501611 6.18250527,4.37501611 C5.03375526,4.37501611 4.09917193,5.30959945 4.09917193,6.45834946 C4.09917193,7.60709946 5.03375526,8.5416828 6.18250527,8.5416828 C7.33125528,8.5416828 8.26583861,7.60709946 8.26583861,6.45834946 Z" id="path-1"></path>
    </defs>
    <g id="Page-1" stroke="none" stroke-width="1" fill="none" fill-rule="evenodd">
        <g id="Homepage-wide" transform="translate(-937.000000, -1806.000000)">
            <g id="Services" transform="translate(0.000000, 1316.000000)">
                <g id="icon7" transform="translate(937.000000, 490.000000)">
                    <circle id="Oval" fill="#F7C0B4" fill-rule="nonzero" cx="15" cy="15" r="15"></circle>
                    <g id="cog" transform="translate(9.000000, 9.000000)">
                        <mask id="mask-2" fill="white">
                            <use xlink:href="#path-1"></use>
                        </mask>
                        <use fill="#FA755A" fill-rule="nonzero" xlink:href="#path-1"></use>
                    </g>
                </g>
            </g>
        </g>
    </g>
</svg>