<?xml version="1.0" encoding="UTF-8"?>
<svg width="30px" height="30px" viewBox="0 0 30 30" version="1.1" xmlns="http://www.w3.org/2000/svg" xmlns:xlink="http://www.w3.org/1999/xlink">
    <!-- Generator: Sketch 53.2 (72643) - https://sketchapp.com -->
    <title>icon6</title>
    <desc>Created with Sketch.</desc>
    <defs>
        <path d="M13.5208333,19.8367467 L14.0416667,19.8367467 L14.0416667,15.8061105 L13.5208333,15.8061105 C13.2331771,15.8061105 13,15.5562779 13,15.2480748 L13,13.9151786 C13,13.6069755 13.2331771,13.3571429 13.5208333,13.3571429 L16.4375,13.3571429 C16.7251562,13.3571429 16.9583333,13.6069755 16.9583333,13.9151786 L16.9583333,19.8367467 L17.4791667,19.8367467 C17.7668229,19.8367467 18,20.0865793 18,20.3947824 L18,21.7276786 C18,22.0358818 17.7668229,22.2857144 17.4791667,22.2857144 L13.5208333,22.2857144 C13.2331771,22.2857144 13,22.0358818 13,21.7276786 L13,20.3947824 C13,20.0865793 13.2331771,19.8367467 13.5208333,19.8367467 Z M15.5,8 C14.4644531,8 13.625,8.89941407 13.625,10.0089286 C13.625,11.1184431 14.4644531,12.0178572 15.5,12.0178572 C16.5355469,12.0178572 17.375,11.1184431 17.375,10.0089286 C17.375,8.89941407 16.5355208,8 15.5,8 Z" id="path-1"></path>
    </defs>
    <g id="Page-1" stroke="none" stroke-width="1" fill="none" fill-rule="evenodd">
        <g id="Homepage-wide" transform="translate(-937.000000, -1744.000000)">
            <g id="Services" transform="translate(0.000000, 1316.000000)">
                <g id="icon6" transform="translate(937.000000, 428.000000)">
                    <circle id="Oval" fill="#F7C0B4" fill-rule="nonzero" cx="15" cy="15" r="15"></circle>
                    <mask id="mask-2" fill="white">
                        <use xlink:href="#path-1"></use>
                    </mask>
                    <use id="info" fill="#FA755A" fill-rule="nonzero" xlink:href="#path-1"></use>
                </g>
            </g>
        </g>
    </g>
</svg>