<?xml version="1.0" encoding="UTF-8"?>
<svg width="30px" height="30px" viewBox="0 0 30 30" version="1.1" xmlns="http://www.w3.org/2000/svg" xmlns:xlink="http://www.w3.org/1999/xlink">
    <!-- Generator: Sketch 53.2 (72643) - https://sketchapp.com -->
    <title>icon8</title>
    <desc>Created with Sketch.</desc>
    <defs>
        <path d="M22.9996383,15.4638714 C22.9856344,15.9745162 22.5538275,16.3750047 22.0430069,16.3750047 L20.4218635,16.3750047 L20.4218635,16.8437549 C20.4218635,17.4843021 20.2788361,18.0913337 20.0234258,18.6351133 L21.7879189,20.3996063 C22.1540129,20.7657296 22.1540129,21.3593139 21.7879189,21.7254371 C21.4217664,22.0915603 20.8281821,22.091531 20.4620589,21.7254371 L18.8584643,20.1218425 C18.1333663,20.709919 17.2094889,21.0625071 16.2031114,21.0625071 L16.2031114,13.914066 C16.2031114,13.7199155 16.0456992,13.5625033 15.8515487,13.5625033 L15.1484234,13.5625033 C14.9542729,13.5625033 14.7968607,13.7199155 14.7968607,13.914066 L14.7968607,21.0625071 C13.7904833,21.0625071 12.8666058,20.709919 12.1415078,20.1218425 L10.5379133,21.7254371 C10.1717607,22.0915603 9.57817646,22.091531 9.21205323,21.7254371 C8.84595929,21.3593139 8.84595929,20.7657296 9.21205323,20.3996063 L10.9765463,18.6351133 C10.721136,18.0913337 10.5781086,17.4843021 10.5781086,16.8437549 L10.5781086,16.3750047 L8.9569945,16.3750047 C8.44617393,16.3750047 8.01436708,15.9745162 8.00036316,15.4638714 C7.98580261,14.9340665 8.41095907,14.5000038 8.93748277,14.5000038 L10.5781086,14.5000038 L10.5781086,12.778958 L9.21205323,11.4129026 C8.84595929,11.0467794 8.84595929,10.4531951 9.21205323,10.0870719 C9.57820575,9.72094863 10.1717607,9.72094863 10.5379133,10.0870719 L12.1383145,11.6875024 L18.8616284,11.6875024 L20.4620296,10.0871012 C20.8281821,9.72097793 21.4217371,9.72097793 21.7878896,10.0871012 C22.1539836,10.4532244 22.1539836,11.0468087 21.7878896,11.4129319 L20.4218635,12.778958 L20.4218635,14.5000038 L22.0624894,14.5000038 C22.5890131,14.5000038 23.0141695,14.9340665 22.9996383,15.4638714 Z M15.529283,7 C13.7170946,7 12.2480313,8.46906324 12.2480313,10.2812516 L18.8105346,10.2812516 C18.8105346,8.46906324 17.3414714,7 15.529283,7 Z" id="path-1"></path>
    </defs>
    <g id="Page-1" stroke="none" stroke-width="1" fill="none" fill-rule="evenodd">
        <g id="Homepage-wide" transform="translate(-937.000000, -1871.000000)">
            <g id="Services" transform="translate(0.000000, 1316.000000)">
                <g id="icon8" transform="translate(937.000000, 555.000000)">
                    <circle id="Oval" fill="#F7C0B4" fill-rule="nonzero" cx="15" cy="15" r="15"></circle>
                    <mask id="mask-2" fill="white">
                        <use xlink:href="#path-1"></use>
                    </mask>
                    <use id="bug" fill="#FA755A" fill-rule="nonzero" xlink:href="#path-1"></use>
                </g>
            </g>
        </g>
    </g>
</svg>