<?xml version="1.0" encoding="UTF-8"?>
<svg width="133px" height="132px" viewBox="0 0 133 132" version="1.1" xmlns="http://www.w3.org/2000/svg" xmlns:xlink="http://www.w3.org/1999/xlink">
    <!-- Generator: Sketch 53.2 (72643) - https://sketchapp.com -->
    <title>icon1</title>
    <desc>Created with Sketch.</desc>
    <defs>
        <ellipse id="path-1" cx="33.1620112" cy="32" rx="33.1620112" ry="32"></ellipse>
        <filter x="-90.5%" y="-70.3%" width="280.9%" height="287.5%" filterUnits="objectBoundingBox" id="filter-2">
            <feOffset dx="0" dy="5" in="SourceAlpha" result="shadowOffsetOuter1"></feOffset>
            <feGaussianBlur stdDeviation="2" in="shadowOffsetOuter1" result="shadowBlurOuter1"></feGaussianBlur>
            <feColorMatrix values="0 0 0 0 0   0 0 0 0 0   0 0 0 0 0  0 0 0 0.07 0" type="matrix" in="shadowBlurOuter1" result="shadowMatrixOuter1"></feColorMatrix>
            <feOffset dx="0" dy="15" in="SourceAlpha" result="shadowOffsetOuter2"></feOffset>
            <feGaussianBlur stdDeviation="17.5" in="shadowOffsetOuter2" result="shadowBlurOuter2"></feGaussianBlur>
            <feColorMatrix values="0 0 0 0 0.196078431   0 0 0 0 0.196078431   0 0 0 0 0.364705882  0 0 0 0.1 0" type="matrix" in="shadowBlurOuter2" result="shadowMatrixOuter2"></feColorMatrix>
            <feMerge>
                <feMergeNode in="shadowMatrixOuter1"></feMergeNode>
                <feMergeNode in="shadowMatrixOuter2"></feMergeNode>
            </feMerge>
        </filter>
        <path d="M27.8,32.5 C30.3146875,32.5 32.35,30.3752232 32.35,27.75 C32.35,25.1247768 30.3146875,23 27.8,23 C25.2853125,23 23.25,25.1247768 23.25,27.75 C23.25,30.3752232 25.2853125,32.5 27.8,32.5 Z M30.92,33.8571429 L30.5828125,33.8571429 C29.7378125,34.28125 28.799375,34.5357143 27.8,34.5357143 C26.800625,34.5357143 25.86625,34.28125 25.0171875,33.8571429 L24.68,33.8571429 C22.09625,33.8571429 20,36.0455357 20,38.7428571 L20,39.9642857 C20,41.0881696 20.8734375,42 21.95,42 L33.65,42 C34.7265625,42 35.6,41.0881696 35.6,39.9642857 L35.6,38.7428571 C35.6,36.0455357 33.50375,33.8571429 30.92,33.8571429 Z M39.5,32.5 C41.653125,32.5 43.4,30.6763393 43.4,28.4285714 C43.4,26.1808036 41.653125,24.3571429 39.5,24.3571429 C37.346875,24.3571429 35.6,26.1808036 35.6,28.4285714 C35.6,30.6763393 37.346875,32.5 39.5,32.5 Z M41.45,33.8571429 L41.295625,33.8571429 C40.7309375,34.0607143 40.13375,34.1964286 39.5,34.1964286 C38.86625,34.1964286 38.2690625,34.0607143 37.704375,33.8571429 L37.55,33.8571429 C36.72125,33.8571429 35.9575,34.1073661 35.2871875,34.5102679 C36.2784375,35.6256696 36.9,37.1058036 36.9,38.7428571 L36.9,40.3714286 C36.9,40.4647321 36.8796875,40.5537946 36.875625,40.6428571 L44.05,40.6428571 C45.1265625,40.6428571 46,39.7310268 46,38.6071429 C46,35.9819196 43.9646875,33.8571429 41.45,33.8571429 L41.45,33.8571429 Z" id="path-3"></path>
    </defs>
    <g id="Page-1" stroke="none" stroke-width="1" fill="none" fill-rule="evenodd">
        <g id="Homepage-wide" transform="translate(-445.000000, -1507.000000)">
            <g id="Services" transform="translate(0.000000, 1316.000000)">
                <g id="icon1" transform="translate(478.000000, 210.000000)">
                    <g id="Oval" fill-rule="nonzero">
                        <use fill="black" fill-opacity="1" filter="url(#filter-2)" xlink:href="#path-1"></use>
                        <use fill="#A9ECD0" xlink:href="#path-1"></use>
                    </g>
                    <mask id="mask-4" fill="white">
                        <use xlink:href="#path-3"></use>
                    </mask>
                    <use id="user-friends" fill="#1AAE6F" fill-rule="nonzero" xlink:href="#path-3"></use>
                </g>
            </g>
        </g>
    </g>
</svg>