<?xml version="1.0" encoding="UTF-8"?>
<svg width="30px" height="30px" viewBox="0 0 30 30" version="1.1" xmlns="http://www.w3.org/2000/svg" xmlns:xlink="http://www.w3.org/1999/xlink">
    <!-- Generator: Sketch 53.2 (72643) - https://sketchapp.com -->
    <title>icon2</title>
    <desc>Created with Sketch.</desc>
    <g id="Page-1" stroke="none" stroke-width="1" fill="none" fill-rule="evenodd">
        <g id="Homepage-wide" transform="translate(-465.000000, -1752.000000)">
            <g id="Services" transform="translate(0.000000, 1316.000000)">
                <g id="icon2" transform="translate(465.000000, 436.000000)">
                    <circle id="Oval-2" fill="#A9ECD0" fill-rule="nonzero" cx="15" cy="15" r="15"></circle>
                    <path d="M15.5,8 C11.3574219,8 8,10.7275391 8,14.09375 C8,15.546875 8.62695312,16.8769531 9.66992188,17.9228516 C9.30371094,19.3994141 8.07910156,20.7148438 8.06445312,20.7294922 C8,20.796875 7.98242188,20.8964844 8.02050781,20.984375 C8.05859375,21.0722656 8.140625,21.125 8.234375,21.125 C10.1767578,21.125 11.6328125,20.1933594 12.3535156,19.6191406 C13.3115234,19.9794922 14.375,20.1875 15.5,20.1875 C19.6425781,20.1875 23,17.4599609 23,14.09375 C23,10.7275391 19.6425781,8 15.5,8 Z" id="Path" fill="#1AAE6F"></path>
                    <path d="M11.75,15.03125 C11.2314453,15.03125 10.8125,14.6123047 10.8125,14.09375 C10.8125,13.5751953 11.2314453,13.15625 11.75,13.15625 C12.2685547,13.15625 12.6875,13.5751953 12.6875,14.09375 C12.6875,14.6123047 12.2685547,15.03125 11.75,15.03125 Z" id="Path" fill="#FFFFFF"></path>
                    <path d="M15.5,15.03125 C14.9814453,15.03125 14.5625,14.6123047 14.5625,14.09375 C14.5625,13.5751953 14.9814453,13.15625 15.5,13.15625 C16.0185547,13.15625 16.4375,13.5751953 16.4375,14.09375 C16.4375,14.6123047 16.0185547,15.03125 15.5,15.03125 Z" id="Path" fill="#FFFFFF"></path>
                    <path d="M19.25,15.03125 C18.7314453,15.03125 18.3125,14.6123047 18.3125,14.09375 C18.3125,13.5751953 18.7314453,13.15625 19.25,13.15625 C19.7685547,13.15625 20.1875,13.5751953 20.1875,14.09375 C20.1875,14.6123047 19.7685547,15.03125 19.25,15.03125 Z" id="Path" fill="#FFFFFF"></path>
                </g>
            </g>
        </g>
    </g>
</svg>