<?xml version="1.0" encoding="UTF-8"?>
<svg width="30px" height="30px" viewBox="0 0 30 30" version="1.1" xmlns="http://www.w3.org/2000/svg" xmlns:xlink="http://www.w3.org/1999/xlink">
    <!-- Generator: Sketch 53.2 (72643) - https://sketchapp.com -->
    <title>linkedin</title>
    <desc>Created with Sketch.</desc>
    <g id="Page-1" stroke="none" stroke-width="1" fill="none" fill-rule="evenodd">
        <g id="Homepage-wide" transform="translate(-915.000000, -3605.000000)" fill="#8898AA">
            <g id="Footer" transform="translate(803.000000, 3605.000000)">
                <g id="Group-6">
                    <g id="Group-4" transform="translate(62.000000, 0.000000)">
                        <path d="M50,15 C50,6.71572834 56.7157283,0 65,0 C73.2842717,0 80,6.71572834 80,15 C80,23.2842717 73.2842717,30 65,30 C56.7157283,30 50,23.2842717 50,15 Z M60.6003387,12.4236552 L57.2010107,12.4236552 L57.2010107,22.6372248 L60.6003387,22.6372248 L60.6003387,12.4236552 Z M60.8242271,9.26418606 C60.8021641,8.26275203 60.0860337,7.5 58.923145,7.5 C57.7602563,7.5 57,8.26275203 57,9.26418606 C57,10.2448769 57.737786,11.0295923 58.8790191,11.0295923 L58.9007426,11.0295923 C60.0860337,11.0295923 60.8242271,10.2448769 60.8242271,9.26418606 Z M72.859616,16.7810761 C72.859616,13.6439093 71.1826259,12.1838208 68.9457114,12.1838208 C67.1408919,12.1838208 66.3328437,13.1751544 65.8816728,13.8705928 L65.8816728,12.4239263 L62.4819375,12.4239263 C62.5267423,13.3823149 62.4819375,22.637496 62.4819375,22.637496 L65.8816728,22.637496 L65.8816728,16.9333961 C65.8816728,16.6281461 65.9037358,16.3236418 65.993617,16.1050929 C66.2392967,15.4952709 66.7986781,14.8638923 67.7378142,14.8638923 C68.9683854,14.8638923 69.460288,15.8004531 69.460288,17.1729593 L69.460288,22.6372248 L72.8594802,22.6372248 L72.859616,16.7810761 Z" id="linkedin"></path>
                    </g>
                </g>
            </g>
        </g>
    </g>
</svg>