<?xml version="1.0" encoding="UTF-8"?>
<svg width="15px" height="18px" viewBox="0 0 15 18" version="1.1" xmlns="http://www.w3.org/2000/svg" xmlns:xlink="http://www.w3.org/1999/xlink">
    <!-- Generator: Sketch 53.2 (72643) - https://sketchapp.com -->
    <title>name</title>
    <desc>Created with Sketch.</desc>
    <g id="Page-1" stroke="none" stroke-width="1" fill="none" fill-rule="evenodd">
        <g id="Homepage-wide" transform="translate(-644.000000, -3131.000000)" fill="#ADB5BD">
            <g id="Contacts" transform="translate(0.000000, 2759.000000)">
                <path d="M651.5,373.400052 C652.930361,373.400052 654.094221,374.646098 654.094221,376.172155 C654.094221,377.702878 652.930361,378.944257 651.5,378.944257 C650.069639,378.944257 648.906215,377.702878 648.906215,376.172155 C648.906215,374.646098 650.069639,373.400052 651.5,373.400052 Z M651.5,380.344309 C653.652968,380.344309 655.404876,378.472906 655.404876,376.172155 C655.404876,373.871403 653.652968,372 651.5,372 C649.347032,372 647.595561,373.871403 647.595561,376.172155 C647.595561,378.472906 649.347032,380.344309 651.5,380.344309 L651.5,380.344309 Z M657.689346,388.599948 L645.310654,388.599948 L645.310654,385.351828 C645.310654,384.530464 645.611668,383.727768 646.115833,383.200415 C646.373595,382.929738 646.798247,382.603059 647.404206,382.621727 C647.738423,382.63106 648.773839,382.61706 650.032941,382.612393 C651.914167,382.603059 654.286888,382.589059 655.514534,382.589059 C657.008679,382.589059 657.689346,383.891107 657.689346,385.099819 L657.689346,388.599948 Z M655.514534,381.189007 C654.285577,381.189007 651.910235,381.203008 650.026825,381.212341 C648.776898,381.217008 647.744539,381.221675 647.422118,381.221675 C647.420807,381.221675 647.41906,381.221675 647.417312,381.221675 C646.60558,381.207674 645.815693,381.55302 645.197938,382.201711 C644.447807,382.98574 644,384.161784 644,385.351828 L644,389.299974 C644,389.682655 644.29315,390 644.655327,390 L658.344673,390 C658.706413,390 659,389.682655 659,389.299974 L659,385.099819 C659,383.205082 657.77847,381.189007 655.514534,381.189007 L655.514534,381.189007 Z" id="name"></path>
            </g>
        </g>
    </g>
</svg>