<?xml version="1.0" encoding="UTF-8"?>
<svg width="13px" height="20px" viewBox="0 0 13 20" version="1.1" xmlns="http://www.w3.org/2000/svg" xmlns:xlink="http://www.w3.org/1999/xlink">
    <!-- Generator: Sketch 53.2 (72643) - https://sketchapp.com -->
    <title>phone</title>
    <desc>Created with Sketch.</desc>
    <g id="Page-1" stroke="none" stroke-width="1" fill="none" fill-rule="evenodd">
        <g id="Homepage-wide" transform="translate(-645.000000, -3191.000000)" fill="#ADB5BD">
            <g id="Contacts" transform="translate(0.000000, 2759.000000)">
                <path d="M651.685714,449.907297 C652.4425,449.907297 653.06,449.301514 653.06,448.553465 C653.06,447.805415 652.4425,447.199633 651.685714,447.199633 C650.933571,447.199633 650.316071,447.805415 650.316071,448.553465 C650.316071,449.301514 650.933571,449.907297 651.685714,449.907297 M656.607143,445.171179 L646.392857,445.171179 L646.392857,433.606241 C646.392857,433.477742 646.499643,433.376778 646.625,433.376778 L656.375,433.376778 C656.505,433.376778 656.607143,433.477742 656.607143,433.606241 L656.607143,445.171179 Z M656.607143,450.393759 C656.607143,450.517669 656.505,450.623222 656.375,450.623222 L646.625,450.623222 C646.499643,450.623222 646.392857,450.517669 646.392857,450.393759 L646.392857,446.547958 L656.607143,446.547958 L656.607143,450.393759 Z M656.375,432 L646.625,432 C645.728929,432 645,432.720514 645,433.606241 L645,450.393759 C645,451.279486 645.728929,452 646.625,452 L656.375,452 C657.271071,452 658,451.279486 658,450.393759 L658,433.606241 C658,432.720514 657.271071,432 656.375,432 L656.375,432 Z" id="phone"></path>
            </g>
        </g>
    </g>
</svg>