<svg xmlns="http://www.w3.org/2000/svg" width="117.43" height="9.42mm" viewBox="0 0 88.08 26.71"><path d="M7.15 2.81v8.2H3.63v-8.2H0V0h10.75v2.81zm12.65 8.2V6.83h-3.89v4.18h-3.54V0h3.54v4h3.89V0h3.54v11zM35.63 5.2a3.18 3.18 0 01-1.6 1.2l2.45 4.61h-4l-2-4h-1.24v4H25.7V0h6.74a4.26 4.26 0 012 .45 3.07 3.07 0 011.29 1.24 3.48 3.48 0 01.43 1.69 3.15 3.15 0 01-.53 1.82zm-3.36-2.4a1 1 0 00-.71-.3h-2.32v2h2.32a1 1 0 00.71-.29 1 1 0 00.29-.71 1 1 0 00-.29-.7zM38.16 0h9.52v2.64h-6v1.52h5.12v2.53h-5.1v1.68h6.09v2.64h-9.63zm11.55 0h9.53v2.64h-6v1.52h5.12v2.53h-5.11v1.68h6.1v2.64h-9.64zM18.79 15.95a3.39 3.39 0 011.25 1.3 3.89 3.89 0 01.44 1.85v.2a3.93 3.93 0 01-.44 1.86 3.35 3.35 0 01-1.25 1.34 3.59 3.59 0 01-1.83.47h-2.64v3.53h-3.54v-11h6.18a3.59 3.59 0 011.83.45zm-4.47 4.41h1.46a1.14 1.14 0 00.84-.29 1.09 1.09 0 00.28-.78v-.13a1.09 1.09 0 00-.28-.79 1.14 1.14 0 00-.84-.28h-1.46zm8.18 6.14v-11h3.54v11zm17.34 0h-4.29l-2-3.42h-.06l-2 3.42h-4l3.93-5.82-3.59-5.18h4.27l1.67 2.82h.06l1.68-2.82h4l-3.57 5.2zm1.18-11h9.52v2.64h-6v1.52h5.12v2.53h-5.1v1.68h6.07v2.63h-9.61zm11.61 0h3.53v8.19h5.65v2.81h-9.18zm18.72.64a2.9 2.9 0 011.4 2.54v.19h-3.32v-.06a1 1 0 00-.35-.8 1.52 1.52 0 00-1.07-.32 2.25 2.25 0 00-1.08.21.6.6 0 00-.38.51.68.68 0 00.51.64 9.76 9.76 0 001.65.43 16.92 16.92 0 012.19.57 3.67 3.67 0 011.49 1 2.55 2.55 0 01.66 1.82 3.33 3.33 0 01-1.32 2.9 6 6 0 01-3.53.94 7.73 7.73 0 01-4-.86 3.27 3.27 0 01-1.43-3.06h3.34a1.23 1.23 0 00.43 1.11 2.52 2.52 0 001.35.28 3.49 3.49 0 001.11-.14.58.58 0 00.44-.59.64.64 0 00-.49-.6 8.75 8.75 0 00-1.59-.43 17 17 0 01-2.22-.6 3.77 3.77 0 01-1.54-1 2.77 2.77 0 01-.66-2 2.91 2.91 0 011.4-2.67 6.74 6.74 0 013.55-.85 6.4 6.4 0 013.46.84zm3.95-2.21h12.78v12.78H75.3z" fill="#fff"/><path fill="green" d="M75.3.04h12.78v12.78H75.3zM61.64.01h12.78v12.78H61.64z"/></svg>