<svg xmlns="http://www.w3.org/2000/svg" viewBox="0 0 88.31 33.8"><path class="a" d="M7.15 2.81v8.2H3.63v-8.2H0V0h10.75v2.81zm12.65 8.2V6.83h-3.89v4.18h-3.54V0h3.54v4h3.89V0h3.54v11zM35.63 5.2a3.18 3.18 0 01-1.6 1.2l2.45 4.61h-4l-2-4h-1.24v4H25.7V0h6.74a4.26 4.26 0 012 .45 3.07 3.07 0 011.29 1.24 3.48 3.48 0 01.43 1.69 3.15 3.15 0 01-.53 1.82zm-3.36-2.4a1 1 0 00-.71-.3h-2.32v2h2.32a1 1 0 00.71-.29 1 1 0 00.29-.71 1 1 0 00-.29-.7zM38.16 0h9.52v2.64h-6v1.52h5.12v2.53h-5.1v1.68h6.09v2.64h-9.63zm11.55 0h9.53v2.64h-6v1.52h5.12v2.53h-5.11v1.68h6.1v2.64h-9.64zM18.79 15.95a3.39 3.39 0 011.25 1.3 3.89 3.89 0 01.44 1.85v.2a3.93 3.93 0 01-.44 1.86 3.35 3.35 0 01-1.25 1.34 3.59 3.59 0 01-1.83.47h-2.64v3.53h-3.54v-11h6.18a3.59 3.59 0 011.83.45zm-4.47 4.41h1.46a1.14 1.14 0 00.84-.29 1.09 1.09 0 00.28-.78v-.13a1.09 1.09 0 00-.28-.79 1.14 1.14 0 00-.84-.28h-1.46zm8.18 6.14v-11h3.54v11zm17.34 0h-4.29l-2-3.42h-.06l-2 3.42h-4l3.93-5.82-3.59-5.18h4.27l1.67 2.82h.06l1.68-2.82h4l-3.57 5.2zm1.18-11h9.52v2.64h-6v1.52h5.12v2.53h-5.1v1.68h6.07v2.63h-9.61zm11.61 0h3.53v8.19h5.65v2.81h-9.18zm18.72.64a2.9 2.9 0 011.4 2.54v.19h-3.32v-.06a1 1 0 00-.35-.8 1.52 1.52 0 00-1.07-.32 2.25 2.25 0 00-1.08.21.6.6 0 00-.38.51.68.68 0 00.51.64 9.76 9.76 0 001.65.43 16.92 16.92 0 012.19.57 3.67 3.67 0 011.49 1 2.55 2.55 0 01.66 1.82 3.33 3.33 0 01-1.32 2.9 6 6 0 01-3.53.94 7.73 7.73 0 01-4-.86 3.27 3.27 0 01-1.43-3.06h3.34a1.23 1.23 0 00.43 1.11 2.52 2.52 0 001.35.28 3.49 3.49 0 001.11-.14.58.58 0 00.44-.59.64.64 0 00-.49-.6 8.75 8.75 0 00-1.59-.43 17 17 0 01-2.22-.6 3.77 3.77 0 01-1.54-1 2.77 2.77 0 01-.66-2 2.91 2.91 0 011.4-2.67 6.74 6.74 0 013.55-.85 6.4 6.4 0 013.46.84z"/><path class="b" d="M75.53 13.93h12.78v12.78H75.53zm0-13.9h12.78v12.78H75.53zM61.64.01h12.78v12.78H61.64z"/><path class="a" d="M20.96 31.12l-.86 2.63h-.66l-.57-1.78-.6 1.78h-.64l-.87-2.63h.64l.59 1.85.64-1.85h.56l.6 1.86.62-1.86zm2.37 2.14v.49h-2v-2.63h2v.49H21.9v.57h1.22v.47H21.9v.61zm2.77-.64a.63.63 0 01.13.41.6.6 0 01-.27.53 1.32 1.32 0 01-.78.19h-1.36v-2.63h1.28a1.28 1.28 0 01.74.18.59.59 0 01.26.5.57.57 0 01-.1.34.64.64 0 01-.25.24.69.69 0 01.35.24zm-1.68-1v.62h.61a.63.63 0 00.34-.08.27.27 0 00.11-.24.25.25 0 00-.11-.23.64.64 0 00-.34-.07zm1.07 1.63a.27.27 0 00.13-.24c0-.22-.17-.33-.49-.33h-.71v.65h.71a.69.69 0 00.36-.12zm2.26-2.13h1.2a1.62 1.62 0 01.75.16 1.29 1.29 0 01.52.46 1.31 1.31 0 01.18.69 1.27 1.27 0 01-.18.69 1.22 1.22 0 01-.52.46 1.63 1.63 0 01-.75.17h-1.2zm1.17 2.13a.93.93 0 00.63-.22.81.81 0 00.23-.6.78.78 0 00-.23-.59.88.88 0 00-.63-.22h-.56v1.63zm3.97.01v.49h-2v-2.63h2v.49h-1.43v.57h1.22v.47h-1.22v.61zm2.98-2.14l-1.14 2.63h-.6l-1.14-2.63h.64l.8 1.88.81-1.88zm2.25 2.14v.49h-2v-2.63h2v.49h-1.43v.57h1.22v.47h-1.22v.61zm.51-2.14h.6v2.13h1.3v.5h-1.9zm2.74 2.5a1.29 1.29 0 01-.52-.49 1.38 1.38 0 01-.18-.7 1.31 1.31 0 01.18-.69 1.29 1.29 0 01.52-.49 1.59 1.59 0 011.47 0 1.27 1.27 0 01.51.49 1.23 1.23 0 01.19.69 1.29 1.29 0 01-.19.7 1.27 1.27 0 01-.51.49 1.67 1.67 0 01-1.47 0zm1.15-.45a.72.72 0 00.3-.3.9.9 0 00.11-.44.86.86 0 00-.11-.43.72.72 0 00-.3-.3.82.82 0 00-.42-.11.88.88 0 00-.42.11.76.76 0 00-.29.3.86.86 0 00-.11.43.9.9 0 00.11.44.76.76 0 00.29.3.87.87 0 00.42.1.82.82 0 00.42-.1zm3.23-1.94a.91.91 0 01.39.33 1 1 0 01.14.51 1 1 0 01-.14.51.91.91 0 01-.39.33 1.66 1.66 0 01-.61.11h-.51v.73h-.61v-2.63h1.14a1.66 1.66 0 01.59.11zm-.23 1.18a.46.46 0 000-.68.62.62 0 00-.42-.12h-.47v.89h.49a.62.62 0 00.4-.09zm3.59 1.34v-1.58l-.78 1.33h-.28l-.77-1.27v1.55h-.57v-2.66h.51l1 1.63 1-1.63h.41v2.63zm3.23-.49v.49h-2v-2.63h2v.49h-1.43v.57h1.22v.47h-1.22v.61zm2.89-2.14v2.63h-.5l-1.31-1.6v1.6h-.6v-2.63h.5l1.31 1.59v-1.59zm1.17.49h-.84v-.49h2.29v.49h-.84v2.14h-.61zm4.62.78h.55v1.11a1.51 1.51 0 01-.49.25 2.24 2.24 0 01-.57.08 1.57 1.57 0 01-.73-.17 1.29 1.29 0 01-.7-1.19 1.38 1.38 0 01.18-.7 1.34 1.34 0 01.52-.48 1.53 1.53 0 01.74-.18 1.61 1.61 0 01.63.12 1.17 1.17 0 01.48.27l-.39.36a.88.88 0 00-.68-.3.9.9 0 00-.44.11.79.79 0 00-.31.29.93.93 0 00-.11.44.9.9 0 00.11.44.72.72 0 00.3.3 1.06 1.06 0 00.92 0zm2.79 1.36l-.5-.73h-.56v.73h-.61v-2.63h1.14a1.57 1.57 0 01.6.11.94.94 0 01.4.33 1 1 0 01.14.51.93.93 0 01-.14.51.91.91 0 01-.4.32l.59.85zm-.15-2a.66.66 0 00-.42-.12h-.49v.87h.49a.66.66 0 00.42-.12.48.48 0 000-.68zm1.77 1.87a1.27 1.27 0 01-.51-.49 1.38 1.38 0 01-.19-.7 1.32 1.32 0 01.19-.69 1.27 1.27 0 01.51-.49 1.53 1.53 0 01.74-.18 1.5 1.5 0 01.74.18 1.27 1.27 0 01.51.49 1.23 1.23 0 01.19.69 1.29 1.29 0 01-.19.7 1.27 1.27 0 01-.51.49 1.61 1.61 0 01-.74.17 1.64 1.64 0 01-.74-.17zm1.2-.45a.72.72 0 00.3-.3.9.9 0 00.11-.44.86.86 0 00-.11-.43.72.72 0 00-.3-.3.82.82 0 00-.42-.11.88.88 0 00-.42.11.84.84 0 00-.4.73.8.8 0 00.11.44.76.76 0 00.29.3.87.87 0 00.42.1.82.82 0 00.42-.1zm1.73.33a1.19 1.19 0 01-.31-.89v-1.49h.58v1.45c0 .47.2.7.59.7a.54.54 0 00.44-.17.78.78 0 00.15-.53v-1.45h.6v1.47a1.2 1.2 0 01-.32.89 1.16 1.16 0 01-.87.31 1.18 1.18 0 01-.86-.29zm4.41-2.27a.88.88 0 01.4.33 1 1 0 01.14.51 1 1 0 01-.14.51.88.88 0 01-.4.33 1.57 1.57 0 01-.6.11h-.54v.73h-.6v-2.63h1.14a1.57 1.57 0 01.6.11zm-.22 1.18a.48.48 0 000-.68.62.62 0 00-.42-.12h-.5v.89h.49a.62.62 0 00.43-.09z"/><path class="c" d="M10.75 32.58H16"/></svg>